<svg width="255" height="32" viewBox="0 0 255 32" fill="none" xmlns="http://www.w3.org/2000/svg">
<rect width="255" height="32" rx="16" fill="#3B3B3B"/>
<path d="M56.8399 10.7593V11.7953H54.1799V20.5173H52.9059V11.7953H50.2319V10.7593H56.8399ZM61.7541 20.6433C61.0354 20.6433 60.3821 20.48 59.7941 20.1533C59.2154 19.8267 58.7581 19.3647 58.4221 18.7673C58.0954 18.1607 57.9321 17.4607 57.9321 16.6673C57.9321 15.8833 58.1001 15.1927 58.4361 14.5953C58.7814 13.9887 59.2481 13.5267 59.8361 13.2093C60.4241 12.8827 61.0821 12.7193 61.8101 12.7193C62.5381 12.7193 63.1961 12.8827 63.7841 13.2093C64.3721 13.5267 64.8341 13.984 65.1701 14.5813C65.5154 15.1787 65.6881 15.874 65.6881 16.6673C65.6881 17.4607 65.5107 18.1607 65.1561 18.7673C64.8107 19.3647 64.3394 19.8267 63.7421 20.1533C63.1447 20.48 62.4821 20.6433 61.7541 20.6433ZM61.7541 19.5233C62.2114 19.5233 62.6407 19.416 63.0421 19.2013C63.4434 18.9867 63.7654 18.6647 64.0081 18.2353C64.2601 17.806 64.3861 17.2833 64.3861 16.6673C64.3861 16.0513 64.2647 15.5287 64.0221 15.0993C63.7794 14.67 63.4621 14.3527 63.0701 14.1473C62.6781 13.9327 62.2534 13.8253 61.7961 13.8253C61.3294 13.8253 60.9001 13.9327 60.5081 14.1473C60.1254 14.3527 59.8174 14.67 59.5841 15.0993C59.3507 15.5287 59.2341 16.0513 59.2341 16.6673C59.2341 17.2927 59.3461 17.82 59.5701 18.2493C59.8034 18.6787 60.1114 19.0007 60.4941 19.2153C60.8767 19.4207 61.2967 19.5233 61.7541 19.5233ZM68.6372 14.2593C68.8892 13.8207 69.2625 13.4567 69.7572 13.1673C70.2612 12.8687 70.8445 12.7193 71.5072 12.7193C72.1885 12.7193 72.8045 12.8827 73.3552 13.2093C73.9152 13.536 74.3538 13.998 74.6712 14.5953C74.9885 15.1833 75.1472 15.8693 75.1472 16.6533C75.1472 17.428 74.9885 18.1187 74.6712 18.7253C74.3538 19.332 73.9152 19.8033 73.3552 20.1393C72.8045 20.4753 72.1885 20.6433 71.5072 20.6433C70.8538 20.6433 70.2752 20.4987 69.7712 20.2093C69.2765 19.9107 68.8985 19.542 68.6372 19.1033V24.1573H67.3632V12.8453H68.6372V14.2593ZM73.8452 16.6533C73.8452 16.0747 73.7285 15.5707 73.4952 15.1413C73.2618 14.712 72.9445 14.3853 72.5432 14.1613C72.1512 13.9373 71.7172 13.8253 71.2412 13.8253C70.7745 13.8253 70.3405 13.942 69.9392 14.1753C69.5472 14.3993 69.2298 14.7307 68.9872 15.1693C68.7538 15.5987 68.6372 16.098 68.6372 16.6673C68.6372 17.246 68.7538 17.7547 68.9872 18.1933C69.2298 18.6227 69.5472 18.954 69.9392 19.1873C70.3405 19.4113 70.7745 19.5233 71.2412 19.5233C71.7172 19.5233 72.1512 19.4113 72.5432 19.1873C72.9445 18.954 73.2618 18.6227 73.4952 18.1933C73.7285 17.7547 73.8452 17.2413 73.8452 16.6533ZM84.9805 20.6153C84.0752 20.6153 83.2492 20.4053 82.5025 19.9853C81.7558 19.556 81.1632 18.9633 80.7245 18.2073C80.2952 17.442 80.0805 16.5833 80.0805 15.6313C80.0805 14.6793 80.2952 13.8253 80.7245 13.0693C81.1632 12.304 81.7558 11.7113 82.5025 11.2913C83.2492 10.862 84.0752 10.6473 84.9805 10.6473C85.8952 10.6473 86.7258 10.862 87.4725 11.2913C88.2192 11.7113 88.8072 12.2993 89.2365 13.0553C89.6658 13.8113 89.8805 14.67 89.8805 15.6313C89.8805 16.5927 89.6658 17.4513 89.2365 18.2073C88.8072 18.9633 88.2192 19.556 87.4725 19.9853C86.7258 20.4053 85.8952 20.6153 84.9805 20.6153ZM84.9805 19.5093C85.6618 19.5093 86.2732 19.3507 86.8145 19.0333C87.3652 18.716 87.7945 18.2633 88.1025 17.6753C88.4198 17.0873 88.5785 16.406 88.5785 15.6313C88.5785 14.8473 88.4198 14.166 88.1025 13.5873C87.7945 12.9993 87.3698 12.5467 86.8285 12.2293C86.2872 11.912 85.6712 11.7533 84.9805 11.7533C84.2898 11.7533 83.6738 11.912 83.1325 12.2293C82.5912 12.5467 82.1618 12.9993 81.8445 13.5873C81.5365 14.166 81.3825 14.8473 81.3825 15.6313C81.3825 16.406 81.5365 17.0873 81.8445 17.6753C82.1618 18.2633 82.5912 18.716 83.1325 19.0333C83.6832 19.3507 84.2992 19.5093 84.9805 19.5093ZM92.8364 14.0913C93.0604 13.6527 93.3777 13.312 93.7884 13.0693C94.2084 12.8267 94.717 12.7053 95.3144 12.7053V14.0213H94.9784C93.5504 14.0213 92.8364 14.796 92.8364 16.3453V20.5173H91.5624V12.8453H92.8364V14.0913ZM99.949 12.7193C100.612 12.7193 101.19 12.864 101.685 13.1533C102.189 13.4427 102.562 13.8067 102.805 14.2453V12.8453H104.093V20.6853C104.093 21.3853 103.944 22.006 103.645 22.5473C103.346 23.098 102.917 23.5273 102.357 23.8353C101.806 24.1433 101.162 24.2973 100.425 24.2973C99.417 24.2973 98.577 24.0593 97.905 23.5833C97.233 23.1073 96.8364 22.4587 96.715 21.6373H97.975C98.115 22.104 98.4044 22.4773 98.843 22.7573C99.2817 23.0467 99.809 23.1913 100.425 23.1913C101.125 23.1913 101.694 22.972 102.133 22.5333C102.581 22.0947 102.805 21.4787 102.805 20.6853V19.0753C102.553 19.5233 102.18 19.8967 101.685 20.1953C101.19 20.494 100.612 20.6433 99.949 20.6433C99.2677 20.6433 98.647 20.4753 98.087 20.1393C97.5364 19.8033 97.1024 19.332 96.785 18.7253C96.4677 18.1187 96.309 17.428 96.309 16.6533C96.309 15.8693 96.4677 15.1833 96.785 14.5953C97.1024 13.998 97.5364 13.536 98.087 13.2093C98.647 12.8827 99.2677 12.7193 99.949 12.7193ZM102.805 16.6673C102.805 16.0887 102.688 15.5847 102.455 15.1553C102.222 14.726 101.904 14.3993 101.503 14.1753C101.111 13.942 100.677 13.8253 100.201 13.8253C99.725 13.8253 99.291 13.9373 98.899 14.1613C98.507 14.3853 98.1944 14.712 97.961 15.1413C97.7277 15.5707 97.611 16.0747 97.611 16.6533C97.611 17.2413 97.7277 17.7547 97.961 18.1933C98.1944 18.6227 98.507 18.954 98.899 19.1873C99.291 19.4113 99.725 19.5233 100.201 19.5233C100.677 19.5233 101.111 19.4113 101.503 19.1873C101.904 18.954 102.222 18.6227 102.455 18.1933C102.688 17.7547 102.805 17.246 102.805 16.6673ZM105.77 16.6533C105.77 15.8693 105.929 15.1833 106.246 14.5953C106.563 13.998 106.997 13.536 107.548 13.2093C108.108 12.8827 108.729 12.7193 109.41 12.7193C110.082 12.7193 110.665 12.864 111.16 13.1533C111.655 13.4427 112.023 13.8067 112.266 14.2453V12.8453H113.554V20.5173H112.266V19.0893C112.014 19.5373 111.636 19.9107 111.132 20.2093C110.637 20.4987 110.059 20.6433 109.396 20.6433C108.715 20.6433 108.099 20.4753 107.548 20.1393C106.997 19.8033 106.563 19.332 106.246 18.7253C105.929 18.1187 105.77 17.428 105.77 16.6533ZM112.266 16.6673C112.266 16.0887 112.149 15.5847 111.916 15.1553C111.683 14.726 111.365 14.3993 110.964 14.1753C110.572 13.942 110.138 13.8253 109.662 13.8253C109.186 13.8253 108.752 13.9373 108.36 14.1613C107.968 14.3853 107.655 14.712 107.422 15.1413C107.189 15.5707 107.072 16.0747 107.072 16.6533C107.072 17.2413 107.189 17.7547 107.422 18.1933C107.655 18.6227 107.968 18.954 108.36 19.1873C108.752 19.4113 109.186 19.5233 109.662 19.5233C110.138 19.5233 110.572 19.4113 110.964 19.1873C111.365 18.954 111.683 18.6227 111.916 18.1933C112.149 17.7547 112.266 17.246 112.266 16.6673ZM119.445 12.7053C120.378 12.7053 121.134 12.99 121.713 13.5593C122.292 14.1193 122.581 14.9313 122.581 15.9953V20.5173H121.321V16.1773C121.321 15.412 121.13 14.8287 120.747 14.4273C120.364 14.0167 119.842 13.8113 119.179 13.8113C118.507 13.8113 117.97 14.0213 117.569 14.4413C117.177 14.8613 116.981 15.4727 116.981 16.2753V20.5173H115.707V12.8453H116.981V13.9373C117.233 13.5453 117.574 13.242 118.003 13.0273C118.442 12.8127 118.922 12.7053 119.445 12.7053ZM125.32 11.5993C125.077 11.5993 124.872 11.5153 124.704 11.3473C124.536 11.1793 124.452 10.974 124.452 10.7313C124.452 10.4887 124.536 10.2833 124.704 10.1153C124.872 9.94733 125.077 9.86333 125.32 9.86333C125.553 9.86333 125.749 9.94733 125.908 10.1153C126.076 10.2833 126.16 10.4887 126.16 10.7313C126.16 10.974 126.076 11.1793 125.908 11.3473C125.749 11.5153 125.553 11.5993 125.32 11.5993ZM125.936 12.8453V20.5173H124.662V12.8453H125.936ZM127.631 16.6673C127.631 15.874 127.79 15.1833 128.107 14.5953C128.425 13.998 128.863 13.536 129.423 13.2093C129.993 12.8827 130.641 12.7193 131.369 12.7193C132.312 12.7193 133.087 12.948 133.693 13.4053C134.309 13.8627 134.715 14.4973 134.911 15.3093H133.539C133.409 14.8427 133.152 14.474 132.769 14.2033C132.396 13.9327 131.929 13.7973 131.369 13.7973C130.641 13.7973 130.053 14.0493 129.605 14.5533C129.157 15.048 128.933 15.7527 128.933 16.6673C128.933 17.5913 129.157 18.3053 129.605 18.8093C130.053 19.3133 130.641 19.5653 131.369 19.5653C131.929 19.5653 132.396 19.4347 132.769 19.1733C133.143 18.912 133.399 18.5387 133.539 18.0533H134.911C134.706 18.8373 134.295 19.4673 133.679 19.9433C133.063 20.41 132.293 20.6433 131.369 20.6433C130.641 20.6433 129.993 20.48 129.423 20.1533C128.863 19.8267 128.425 19.3647 128.107 18.7673C127.79 18.17 127.631 17.47 127.631 16.6673ZM143.438 20.6153C142.794 20.6153 142.215 20.5033 141.702 20.2793C141.198 20.046 140.801 19.7287 140.512 19.3273C140.222 18.9167 140.073 18.4453 140.064 17.9133H141.422C141.468 18.3707 141.655 18.758 141.982 19.0753C142.318 19.3833 142.803 19.5373 143.438 19.5373C144.044 19.5373 144.52 19.388 144.866 19.0893C145.22 18.7813 145.398 18.3893 145.398 17.9133C145.398 17.54 145.295 17.2367 145.09 17.0033C144.884 16.77 144.628 16.5927 144.32 16.4713C144.012 16.35 143.596 16.2193 143.074 16.0793C142.43 15.9113 141.912 15.7433 141.52 15.5753C141.137 15.4073 140.806 15.146 140.526 14.7913C140.255 14.4273 140.12 13.942 140.12 13.3353C140.12 12.8033 140.255 12.332 140.526 11.9213C140.796 11.5107 141.174 11.1933 141.66 10.9693C142.154 10.7453 142.719 10.6333 143.354 10.6333C144.268 10.6333 145.015 10.862 145.594 11.3193C146.182 11.7767 146.513 12.3833 146.588 13.1393H145.188C145.141 12.766 144.945 12.4393 144.6 12.1593C144.254 11.87 143.797 11.7253 143.228 11.7253C142.696 11.7253 142.262 11.8653 141.926 12.1453C141.59 12.416 141.422 12.7987 141.422 13.2933C141.422 13.648 141.52 13.9373 141.716 14.1613C141.921 14.3853 142.168 14.558 142.458 14.6793C142.756 14.7913 143.172 14.922 143.704 15.0713C144.348 15.2487 144.866 15.426 145.258 15.6033C145.65 15.7713 145.986 16.0373 146.266 16.4013C146.546 16.756 146.686 17.2413 146.686 17.8573C146.686 18.3333 146.56 18.7813 146.308 19.2013C146.056 19.6213 145.682 19.962 145.188 20.2233C144.693 20.4847 144.11 20.6153 143.438 20.6153ZM155.56 16.3873C155.56 16.63 155.546 16.8867 155.518 17.1573H149.386C149.433 17.9133 149.69 18.506 150.156 18.9353C150.632 19.3553 151.206 19.5653 151.878 19.5653C152.429 19.5653 152.886 19.4393 153.25 19.1873C153.624 18.926 153.885 18.5807 154.034 18.1513H155.406C155.201 18.8887 154.79 19.4907 154.174 19.9573C153.558 20.4147 152.793 20.6433 151.878 20.6433C151.15 20.6433 150.497 20.48 149.918 20.1533C149.349 19.8267 148.901 19.3647 148.574 18.7673C148.248 18.1607 148.084 17.4607 148.084 16.6673C148.084 15.874 148.243 15.1787 148.56 14.5813C148.878 13.984 149.321 13.5267 149.89 13.2093C150.469 12.8827 151.132 12.7193 151.878 12.7193C152.606 12.7193 153.25 12.878 153.81 13.1953C154.37 13.5127 154.8 13.9513 155.098 14.5113C155.406 15.062 155.56 15.6873 155.56 16.3873ZM154.244 16.1213C154.244 15.636 154.137 15.2207 153.922 14.8753C153.708 14.5207 153.414 14.2547 153.04 14.0773C152.676 13.8907 152.27 13.7973 151.822 13.7973C151.178 13.7973 150.628 14.0027 150.17 14.4133C149.722 14.824 149.466 15.3933 149.4 16.1213H154.244ZM156.766 16.6533C156.766 15.8693 156.925 15.1833 157.242 14.5953C157.559 13.998 157.993 13.536 158.544 13.2093C159.104 12.8827 159.725 12.7193 160.406 12.7193C161.078 12.7193 161.661 12.864 162.156 13.1533C162.651 13.4427 163.019 13.8067 163.262 14.2453V12.8453H164.55V20.5173H163.262V19.0893C163.01 19.5373 162.632 19.9107 162.128 20.2093C161.633 20.4987 161.055 20.6433 160.392 20.6433C159.711 20.6433 159.095 20.4753 158.544 20.1393C157.993 19.8033 157.559 19.332 157.242 18.7253C156.925 18.1187 156.766 17.428 156.766 16.6533ZM163.262 16.6673C163.262 16.0887 163.145 15.5847 162.912 15.1553C162.679 14.726 162.361 14.3993 161.96 14.1753C161.568 13.942 161.134 13.8253 160.658 13.8253C160.182 13.8253 159.748 13.9373 159.356 14.1613C158.964 14.3853 158.651 14.712 158.418 15.1413C158.185 15.5707 158.068 16.0747 158.068 16.6533C158.068 17.2413 158.185 17.7547 158.418 18.1933C158.651 18.6227 158.964 18.954 159.356 19.1873C159.748 19.4113 160.182 19.5233 160.658 19.5233C161.134 19.5233 161.568 19.4113 161.96 19.1873C162.361 18.954 162.679 18.6227 162.912 18.1933C163.145 17.7547 163.262 17.246 163.262 16.6673ZM167.977 14.0913C168.201 13.6527 168.518 13.312 168.929 13.0693C169.349 12.8267 169.858 12.7053 170.455 12.7053V14.0213H170.119C168.691 14.0213 167.977 14.796 167.977 16.3453V20.5173H166.703V12.8453H167.977V14.0913ZM171.45 16.6673C171.45 15.874 171.608 15.1833 171.926 14.5953C172.243 13.998 172.682 13.536 173.242 13.2093C173.811 12.8827 174.46 12.7193 175.188 12.7193C176.13 12.7193 176.905 12.948 177.512 13.4053C178.128 13.8627 178.534 14.4973 178.73 15.3093H177.358C177.227 14.8427 176.97 14.474 176.588 14.2033C176.214 13.9327 175.748 13.7973 175.188 13.7973C174.46 13.7973 173.872 14.0493 173.424 14.5533C172.976 15.048 172.752 15.7527 172.752 16.6673C172.752 17.5913 172.976 18.3053 173.424 18.8093C173.872 19.3133 174.46 19.5653 175.188 19.5653C175.748 19.5653 176.214 19.4347 176.588 19.1733C176.961 18.912 177.218 18.5387 177.358 18.0533H178.73C178.524 18.8373 178.114 19.4673 177.498 19.9433C176.882 20.41 176.112 20.6433 175.188 20.6433C174.46 20.6433 173.811 20.48 173.242 20.1533C172.682 19.8267 172.243 19.3647 171.926 18.7673C171.608 18.17 171.45 17.47 171.45 16.6673ZM184.238 12.7053C184.816 12.7053 185.339 12.8313 185.806 13.0833C186.272 13.326 186.636 13.6947 186.898 14.1893C187.168 14.684 187.304 15.286 187.304 15.9953V20.5173H186.044V16.1773C186.044 15.412 185.852 14.8287 185.47 14.4273C185.087 14.0167 184.564 13.8113 183.902 13.8113C183.23 13.8113 182.693 14.0213 182.292 14.4413C181.9 14.8613 181.704 15.4727 181.704 16.2753V20.5173H180.43V10.1573H181.704V13.9373C181.956 13.5453 182.301 13.242 182.74 13.0273C183.188 12.8127 183.687 12.7053 184.238 12.7053ZM201.181 10.7593L197.499 20.5173H196.029L192.347 10.7593H193.705L196.771 19.1733L199.837 10.7593H201.181ZM205.924 20.6433C205.205 20.6433 204.552 20.48 203.964 20.1533C203.385 19.8267 202.928 19.3647 202.592 18.7673C202.265 18.1607 202.102 17.4607 202.102 16.6673C202.102 15.8833 202.27 15.1927 202.606 14.5953C202.951 13.9887 203.418 13.5267 204.006 13.2093C204.594 12.8827 205.252 12.7193 205.98 12.7193C206.708 12.7193 207.366 12.8827 207.954 13.2093C208.542 13.5267 209.004 13.984 209.34 14.5813C209.685 15.1787 209.858 15.874 209.858 16.6673C209.858 17.4607 209.681 18.1607 209.326 18.7673C208.981 19.3647 208.509 19.8267 207.912 20.1533C207.315 20.48 206.652 20.6433 205.924 20.6433ZM205.924 19.5233C206.381 19.5233 206.811 19.416 207.212 19.2013C207.613 18.9867 207.935 18.6647 208.178 18.2353C208.43 17.806 208.556 17.2833 208.556 16.6673C208.556 16.0513 208.435 15.5287 208.192 15.0993C207.949 14.67 207.632 14.3527 207.24 14.1473C206.848 13.9327 206.423 13.8253 205.966 13.8253C205.499 13.8253 205.07 13.9327 204.678 14.1473C204.295 14.3527 203.987 14.67 203.754 15.0993C203.521 15.5287 203.404 16.0513 203.404 16.6673C203.404 17.2927 203.516 17.82 203.74 18.2493C203.973 18.6787 204.281 19.0007 204.664 19.2153C205.047 19.4207 205.467 19.5233 205.924 19.5233ZM212.191 11.5993C211.948 11.5993 211.743 11.5153 211.575 11.3473C211.407 11.1793 211.323 10.974 211.323 10.7313C211.323 10.4887 211.407 10.2833 211.575 10.1153C211.743 9.94733 211.948 9.86333 212.191 9.86333C212.424 9.86333 212.62 9.94733 212.779 10.1153C212.947 10.2833 213.031 10.4887 213.031 10.7313C213.031 10.974 212.947 11.1793 212.779 11.3473C212.62 11.5153 212.424 11.5993 212.191 11.5993ZM212.807 12.8453V20.5173H211.533V12.8453H212.807ZM214.502 16.6673C214.502 15.874 214.661 15.1833 214.978 14.5953C215.296 13.998 215.734 13.536 216.294 13.2093C216.864 12.8827 217.512 12.7193 218.24 12.7193C219.183 12.7193 219.958 12.948 220.564 13.4053C221.18 13.8627 221.586 14.4973 221.782 15.3093H220.41C220.28 14.8427 220.023 14.474 219.64 14.2033C219.267 13.9327 218.8 13.7973 218.24 13.7973C217.512 13.7973 216.924 14.0493 216.476 14.5533C216.028 15.048 215.804 15.7527 215.804 16.6673C215.804 17.5913 216.028 18.3053 216.476 18.8093C216.924 19.3133 217.512 19.5653 218.24 19.5653C218.8 19.5653 219.267 19.4347 219.64 19.1733C220.014 18.912 220.27 18.5387 220.41 18.0533H221.782C221.577 18.8373 221.166 19.4673 220.55 19.9433C219.934 20.41 219.164 20.6433 218.24 20.6433C217.512 20.6433 216.864 20.48 216.294 20.1533C215.734 19.8267 215.296 19.3647 214.978 18.7673C214.661 18.17 214.502 17.47 214.502 16.6673ZM230.482 16.3873C230.482 16.63 230.468 16.8867 230.44 17.1573H224.308C224.355 17.9133 224.612 18.506 225.078 18.9353C225.554 19.3553 226.128 19.5653 226.8 19.5653C227.351 19.5653 227.808 19.4393 228.172 19.1873C228.546 18.926 228.807 18.5807 228.956 18.1513H230.328C230.123 18.8887 229.712 19.4907 229.096 19.9573C228.48 20.4147 227.715 20.6433 226.8 20.6433C226.072 20.6433 225.419 20.48 224.84 20.1533C224.271 19.8267 223.823 19.3647 223.496 18.7673C223.17 18.1607 223.006 17.4607 223.006 16.6673C223.006 15.874 223.165 15.1787 223.482 14.5813C223.8 13.984 224.243 13.5267 224.812 13.2093C225.391 12.8827 226.054 12.7193 226.8 12.7193C227.528 12.7193 228.172 12.878 228.732 13.1953C229.292 13.5127 229.722 13.9513 230.02 14.5113C230.328 15.062 230.482 15.6873 230.482 16.3873ZM229.166 16.1213C229.166 15.636 229.059 15.2207 228.844 14.8753C228.63 14.5207 228.336 14.2547 227.962 14.0773C227.598 13.8907 227.192 13.7973 226.744 13.7973C226.1 13.7973 225.55 14.0027 225.092 14.4133C224.644 14.824 224.388 15.3933 224.322 16.1213H229.166Z" fill="#ECE5E5"/>
<path d="M22.7111 6.29004L21.6164 7.29432L23.2452 8.79004L24.3382 7.78575L22.7111 6.29004ZM36.9965 6.29004L35.3678 7.78575L36.4616 8.79004L38.0896 7.29504L36.9965 6.29004ZM29.8534 6.73575C29.5968 6.73861 29.3372 6.75218 29.0759 6.78147C29.0682 6.78147 29.0604 6.78004 29.0526 6.78147C25.8993 7.11361 23.3898 9.45432 22.9536 12.3386C22.6053 14.66 23.6471 16.765 25.3831 18.1208C26.0932 18.6776 26.5735 19.4417 26.7436 20.285V24.5708H28.5162C28.7867 24.9972 29.2804 25.285 29.8534 25.285C30.4264 25.285 30.92 24.9972 31.1906 24.5708H32.9631V21.7136H33.0362V20.865C33.0362 19.8179 33.6286 18.7622 34.5911 17.9415C35.8785 16.7572 36.8503 15.075 36.8503 13.1429C36.8503 9.61432 33.6893 6.7029 29.8534 6.73575ZM29.8534 8.16432C32.8582 8.12575 35.2955 10.3858 35.2955 13.1429C35.2955 14.6386 34.5413 15.9558 33.4972 16.9143L33.5221 16.9372C32.4845 17.8163 31.8136 19.0006 31.6252 20.2858H28.2246C28.0536 19.0615 27.4822 17.8765 26.4023 17.0265C25.0286 15.955 24.21 14.3408 24.4836 12.5179C24.8234 10.2679 26.8105 8.45861 29.2454 8.21075C29.4465 8.185 29.6489 8.16974 29.8518 8.16504L29.8534 8.16432ZM18.9692 13.1429V14.5715H21.3016V13.1429H18.9692ZM38.4052 13.1429V14.5715H40.7375V13.1429H38.4052ZM23.2452 18.9243L21.6172 20.4193L22.7111 21.4243L24.3375 19.9286L23.2452 18.9243ZM36.4616 18.9243L35.3685 19.9286L36.9957 21.4243L38.0896 20.4193L36.4616 18.9243ZM28.2985 21.7143H31.4083V23.1429H28.2985V21.7143Z" fill="white" fill-opacity="0.65"/>
</svg>
