<svg width="849" height="362" viewBox="0 0 849 362" fill="none" xmlns="http://www.w3.org/2000/svg">
<g filter="url(#filter0_b_47_364)">
<rect x="2" y="2" width="694" height="56" rx="28" fill="black" fill-opacity="0.2"/>
<rect x="1" y="1" width="696" height="58" rx="29" stroke="white" stroke-opacity="0.2" stroke-width="2"/>
<path d="M595 34.0001C597.213 34.0001 599 32.2534 599 30.0401V20.6801C599 18.4667 597.213 16.6667 595 16.6667C592.787 16.6667 591 18.4534 591 20.6801V30.0401C591 32.2534 592.787 34.0001 595 34.0001Z" fill="#4285F4"/>
<path d="M593.667 38.1067H596.333V43.3334H593.667V38.1067Z" fill="#34A853"/>
<path d="M588.4 36.4933C586.707 34.72 585.667 32.72 585.667 30H588.333C588.333 31.9333 589.08 33.2267 590.293 34.5067V34.9333L588.76 36.5067L588.4 36.4933Z" fill="#FBBC05"/>
<path d="M595 36.5733C594.123 36.576 593.254 36.3946 592.444 36.0399C591.634 35.6851 590.898 35.164 590.28 34.5067L588.4 36.4933C590.08 38.28 592.427 39.3333 595 39.3333C600.16 39.3333 604.32 35.44 604.32 30H601.667C601.667 33.8933 598.68 36.5733 595 36.5733Z" fill="#EB4335"/>
<g clip-path="url(#clip0_47_364)">
<path d="M651 36.025C653.577 36.025 655.666 33.9356 655.666 31.3583C655.666 28.781 653.577 26.6917 651 26.6917C648.422 26.6917 646.333 28.781 646.333 31.3583C646.333 33.9356 648.422 36.025 651 36.025Z" fill="#4285F4"/>
<path d="M661.667 25.9999V32.6916V36.6666C661.667 36.9483 661.61 37.2149 661.53 37.4699C661.268 38.2899 660.625 38.9333 659.805 39.1949C659.55 39.2766 659.283 39.3316 659.002 39.3316H646L648.667 41.9983H657H659C659.737 41.9983 660.438 41.8483 661.077 41.5799C661.715 41.3099 662.29 40.9199 662.772 40.4366C663.013 40.1949 663.232 39.9316 663.423 39.6466C663.807 39.0799 664.083 38.4333 664.225 37.7399C664.297 37.3933 664.333 37.0333 664.333 36.6649V34.6649V30.0249V27.9999L663.333 24.8333L661.53 25.1966C661.61 25.4516 661.667 25.7183 661.667 25.9999Z" fill="#EB4335"/>
<path d="M640.333 26C640.333 25.7183 640.39 25.4517 640.47 25.1967C640.732 24.3767 641.375 23.7333 642.195 23.4717C642.452 23.39 642.718 23.3333 643 23.3333H659C659.282 23.3333 659.548 23.39 659.803 23.47L659.833 21.5L657 20.6667L654.333 18H652.093H651H649.907H647.667L645 20.6667H643C640.055 20.6667 637.667 23.055 637.667 26V28V31.3333L640.333 34V26Z" fill="#4285F4"/>
<path d="M659 20.6667H657L659.805 23.4717C660.01 23.5367 660.203 23.6267 660.383 23.7367C660.743 23.9567 661.045 24.2584 661.265 24.6184C661.375 24.7984 661.465 24.9917 661.53 25.1967L664.333 28.0001V26.0001C664.333 23.0551 661.945 20.6667 659 20.6667Z" fill="#34A853"/>
<path d="M643 42H649.648L646.982 39.3333H643C641.53 39.3333 640.333 38.1366 640.333 36.6666V32.685L637.667 30.0183V36.6666C637.667 39.6116 640.055 42 643 42Z" fill="#FBBC05"/>
</g>
<path d="M66.032 23.048V28.64H72.128V30.44H66.032V36.2H72.848V38H63.848V21.248H72.848V23.048H66.032ZM83.0167 38L79.8967 33.104L76.8967 38H74.6167L78.8647 31.472L74.6167 24.848H77.0887L80.2087 29.72L83.1847 24.848H85.4647L81.2407 31.352L85.4887 38H83.0167ZM89.8211 27.272C90.2531 26.52 90.8931 25.896 91.7411 25.4C92.6051 24.888 93.6051 24.632 94.7411 24.632C95.9091 24.632 96.9651 24.912 97.9091 25.472C98.8691 26.032 99.6211 26.824 100.165 27.848C100.709 28.856 100.981 30.032 100.981 31.376C100.981 32.704 100.709 33.888 100.165 34.928C99.6211 35.968 98.8691 36.776 97.9091 37.352C96.9651 37.928 95.9091 38.216 94.7411 38.216C93.6211 38.216 92.6291 37.968 91.7651 37.472C90.9171 36.96 90.2691 36.328 89.8211 35.576V44.24H87.6371V24.848H89.8211V27.272ZM98.7491 31.376C98.7491 30.384 98.5491 29.52 98.1491 28.784C97.7491 28.048 97.2051 27.488 96.5171 27.104C95.8451 26.72 95.1011 26.528 94.2851 26.528C93.4851 26.528 92.7411 26.728 92.0531 27.128C91.3811 27.512 90.8371 28.08 90.4211 28.832C90.0211 29.568 89.8211 30.424 89.8211 31.4C89.8211 32.392 90.0211 33.264 90.4211 34.016C90.8371 34.752 91.3811 35.32 92.0531 35.72C92.7411 36.104 93.4851 36.296 94.2851 36.296C95.1011 36.296 95.8451 36.104 96.5171 35.72C97.2051 35.32 97.7491 34.752 98.1491 34.016C98.5491 33.264 98.7491 32.384 98.7491 31.376ZM115.856 30.92C115.856 31.336 115.832 31.776 115.784 32.24H105.272C105.352 33.536 105.792 34.552 106.592 35.288C107.408 36.008 108.392 36.368 109.544 36.368C110.488 36.368 111.272 36.152 111.896 35.72C112.536 35.272 112.984 34.68 113.24 33.944H115.592C115.24 35.208 114.536 36.24 113.48 37.04C112.424 37.824 111.112 38.216 109.544 38.216C108.296 38.216 107.176 37.936 106.184 37.376C105.208 36.816 104.44 36.024 103.88 35C103.32 33.96 103.04 32.76 103.04 31.4C103.04 30.04 103.312 28.848 103.856 27.824C104.4 26.8 105.16 26.016 106.136 25.472C107.128 24.912 108.264 24.632 109.544 24.632C110.792 24.632 111.896 24.904 112.856 25.448C113.816 25.992 114.552 26.744 115.064 27.704C115.592 28.648 115.856 29.72 115.856 30.92ZM113.6 30.464C113.6 29.632 113.416 28.92 113.048 28.328C112.68 27.72 112.176 27.264 111.536 26.96C110.912 26.64 110.216 26.48 109.448 26.48C108.344 26.48 107.4 26.832 106.616 27.536C105.848 28.24 105.408 29.216 105.296 30.464H113.6ZM120.923 26.984C121.307 26.232 121.851 25.648 122.555 25.232C123.275 24.816 124.147 24.608 125.171 24.608V26.864H124.595C122.147 26.864 120.923 28.192 120.923 30.848V38H118.739V24.848H120.923V26.984ZM130.356 26.648V34.4C130.356 35.04 130.492 35.496 130.764 35.768C131.036 36.024 131.508 36.152 132.18 36.152H133.788V38H131.82C130.604 38 129.692 37.72 129.084 37.16C128.476 36.6 128.172 35.68 128.172 34.4V26.648H126.468V24.848H128.172V21.536H130.356V24.848H133.788V26.648H130.356ZM148.136 38.168C147.032 38.168 146.04 37.976 145.16 37.592C144.296 37.192 143.616 36.648 143.12 35.96C142.624 35.256 142.368 34.448 142.352 33.536H144.68C144.76 34.32 145.08 34.984 145.64 35.528C146.216 36.056 147.048 36.32 148.136 36.32C149.176 36.32 149.992 36.064 150.584 35.552C151.192 35.024 151.496 34.352 151.496 33.536C151.496 32.896 151.32 32.376 150.968 31.976C150.616 31.576 150.176 31.272 149.648 31.064C149.12 30.856 148.408 30.632 147.512 30.392C146.408 30.104 145.52 29.816 144.848 29.528C144.192 29.24 143.624 28.792 143.144 28.184C142.68 27.56 142.448 26.728 142.448 25.688C142.448 24.776 142.68 23.968 143.144 23.264C143.608 22.56 144.256 22.016 145.088 21.632C145.936 21.248 146.904 21.056 147.992 21.056C149.56 21.056 150.84 21.448 151.832 22.232C152.84 23.016 153.408 24.056 153.536 25.352H151.136C151.056 24.712 150.72 24.152 150.128 23.672C149.536 23.176 148.752 22.928 147.776 22.928C146.864 22.928 146.12 23.168 145.544 23.648C144.968 24.112 144.68 24.768 144.68 25.616C144.68 26.224 144.848 26.72 145.184 27.104C145.536 27.488 145.96 27.784 146.456 27.992C146.968 28.184 147.68 28.408 148.592 28.664C149.696 28.968 150.584 29.272 151.256 29.576C151.928 29.864 152.504 30.32 152.984 30.944C153.464 31.552 153.704 32.384 153.704 33.44C153.704 34.256 153.488 35.024 153.056 35.744C152.624 36.464 151.984 37.048 151.136 37.496C150.288 37.944 149.288 38.168 148.136 38.168ZM159.102 23.048V28.64H165.198V30.44H159.102V36.2H165.918V38H156.918V21.248H165.918V23.048H159.102ZM176.807 38.168C175.255 38.168 173.839 37.808 172.559 37.088C171.279 36.352 170.263 35.336 169.511 34.04C168.775 32.728 168.407 31.256 168.407 29.624C168.407 27.992 168.775 26.528 169.511 25.232C170.263 23.92 171.279 22.904 172.559 22.184C173.839 21.448 175.255 21.08 176.807 21.08C178.375 21.08 179.799 21.448 181.079 22.184C182.359 22.904 183.367 23.912 184.103 25.208C184.839 26.504 185.207 27.976 185.207 29.624C185.207 31.272 184.839 32.744 184.103 34.04C183.367 35.336 182.359 36.352 181.079 37.088C179.799 37.808 178.375 38.168 176.807 38.168ZM176.807 36.272C177.975 36.272 179.023 36 179.951 35.456C180.895 34.912 181.631 34.136 182.159 33.128C182.703 32.12 182.975 30.952 182.975 29.624C182.975 28.28 182.703 27.112 182.159 26.12C181.631 25.112 180.903 24.336 179.975 23.792C179.047 23.248 177.991 22.976 176.807 22.976C175.623 22.976 174.567 23.248 173.639 23.792C172.711 24.336 171.975 25.112 171.431 26.12C170.903 27.112 170.639 28.28 170.639 29.624C170.639 30.952 170.903 32.12 171.431 33.128C171.975 34.136 172.711 34.912 173.639 35.456C174.583 36 175.639 36.272 176.807 36.272ZM193.673 29.624C193.673 27.992 194.041 26.528 194.777 25.232C195.513 23.92 196.513 22.896 197.777 22.16C199.057 21.424 200.473 21.056 202.025 21.056C203.849 21.056 205.441 21.496 206.801 22.376C208.161 23.256 209.153 24.504 209.777 26.12H207.161C206.697 25.112 206.025 24.336 205.145 23.792C204.281 23.248 203.241 22.976 202.025 22.976C200.857 22.976 199.809 23.248 198.881 23.792C197.953 24.336 197.225 25.112 196.697 26.12C196.169 27.112 195.905 28.28 195.905 29.624C195.905 30.952 196.169 32.12 196.697 33.128C197.225 34.12 197.953 34.888 198.881 35.432C199.809 35.976 200.857 36.248 202.025 36.248C203.241 36.248 204.281 35.984 205.145 35.456C206.025 34.912 206.697 34.136 207.161 33.128H209.777C209.153 34.728 208.161 35.968 206.801 36.848C205.441 37.712 203.849 38.144 202.025 38.144C200.473 38.144 199.057 37.784 197.777 37.064C196.513 36.328 195.513 35.312 194.777 34.016C194.041 32.72 193.673 31.256 193.673 29.624ZM218.764 38.216C217.532 38.216 216.412 37.936 215.404 37.376C214.412 36.816 213.628 36.024 213.052 35C212.492 33.96 212.212 32.76 212.212 31.4C212.212 30.056 212.5 28.872 213.076 27.848C213.668 26.808 214.468 26.016 215.476 25.472C216.484 24.912 217.612 24.632 218.86 24.632C220.108 24.632 221.236 24.912 222.244 25.472C223.252 26.016 224.044 26.8 224.62 27.824C225.212 28.848 225.508 30.04 225.508 31.4C225.508 32.76 225.204 33.96 224.596 35C224.004 36.024 223.196 36.816 222.172 37.376C221.148 37.936 220.012 38.216 218.764 38.216ZM218.764 36.296C219.548 36.296 220.284 36.112 220.972 35.744C221.66 35.376 222.212 34.824 222.628 34.088C223.06 33.352 223.276 32.456 223.276 31.4C223.276 30.344 223.068 29.448 222.652 28.712C222.236 27.976 221.692 27.432 221.02 27.08C220.348 26.712 219.62 26.528 218.836 26.528C218.036 26.528 217.3 26.712 216.628 27.08C215.972 27.432 215.444 27.976 215.044 28.712C214.644 29.448 214.444 30.344 214.444 31.4C214.444 32.472 214.636 33.376 215.02 34.112C215.42 34.848 215.948 35.4 216.604 35.768C217.26 36.12 217.98 36.296 218.764 36.296ZM234.787 24.608C236.387 24.608 237.683 25.096 238.675 26.072C239.667 27.032 240.163 28.424 240.163 30.248V38H238.003V30.56C238.003 29.248 237.675 28.248 237.019 27.56C236.363 26.856 235.467 26.504 234.331 26.504C233.179 26.504 232.259 26.864 231.571 27.584C230.899 28.304 230.563 29.352 230.563 30.728V38H228.379V24.848H230.563V26.72C230.995 26.048 231.579 25.528 232.315 25.16C233.067 24.792 233.891 24.608 234.787 24.608ZM248.387 38.216C247.379 38.216 246.475 38.048 245.675 37.712C244.875 37.36 244.243 36.88 243.779 36.272C243.315 35.648 243.059 34.936 243.011 34.136H245.267C245.331 34.792 245.635 35.328 246.179 35.744C246.739 36.16 247.467 36.368 248.363 36.368C249.195 36.368 249.851 36.184 250.331 35.816C250.811 35.448 251.051 34.984 251.051 34.424C251.051 33.848 250.795 33.424 250.283 33.152C249.771 32.864 248.979 32.584 247.907 32.312C246.931 32.056 246.131 31.8 245.507 31.544C244.899 31.272 244.371 30.88 243.923 30.368C243.491 29.84 243.275 29.152 243.275 28.304C243.275 27.632 243.475 27.016 243.875 26.456C244.275 25.896 244.843 25.456 245.579 25.136C246.315 24.8 247.155 24.632 248.099 24.632C249.555 24.632 250.731 25 251.627 25.736C252.523 26.472 253.003 27.48 253.067 28.76H250.883C250.835 28.072 250.555 27.52 250.043 27.104C249.547 26.688 248.875 26.48 248.027 26.48C247.243 26.48 246.619 26.648 246.155 26.984C245.691 27.32 245.459 27.76 245.459 28.304C245.459 28.736 245.595 29.096 245.867 29.384C246.155 29.656 246.507 29.88 246.923 30.056C247.355 30.216 247.947 30.4 248.699 30.608C249.643 30.864 250.411 31.12 251.003 31.376C251.595 31.616 252.099 31.984 252.515 32.48C252.947 32.976 253.171 33.624 253.187 34.424C253.187 35.144 252.987 35.792 252.587 36.368C252.187 36.944 251.619 37.4 250.883 37.736C250.163 38.056 249.331 38.216 248.387 38.216ZM267.934 24.848V38H265.75V36.056C265.334 36.728 264.75 37.256 263.998 37.64C263.262 38.008 262.446 38.192 261.55 38.192C260.526 38.192 259.606 37.984 258.79 37.568C257.974 37.136 257.326 36.496 256.846 35.648C256.382 34.8 256.15 33.768 256.15 32.552V24.848H258.31V32.264C258.31 33.56 258.638 34.56 259.294 35.264C259.95 35.952 260.846 36.296 261.982 36.296C263.15 36.296 264.07 35.936 264.742 35.216C265.414 34.496 265.75 33.448 265.75 32.072V24.848H267.934ZM273.805 20.24V38H271.621V20.24H273.805ZM280.192 26.648V34.4C280.192 35.04 280.328 35.496 280.6 35.768C280.872 36.024 281.344 36.152 282.016 36.152H283.624V38H281.656C280.44 38 279.528 37.72 278.92 37.16C278.312 36.6 278.008 35.68 278.008 34.4V26.648H276.304V24.848H278.008V21.536H280.192V24.848H283.624V26.648H280.192ZM285.454 31.376C285.454 30.032 285.726 28.856 286.27 27.848C286.814 26.824 287.558 26.032 288.502 25.472C289.462 24.912 290.526 24.632 291.694 24.632C292.846 24.632 293.846 24.88 294.694 25.376C295.542 25.872 296.174 26.496 296.59 27.248V24.848H298.798V38H296.59V35.552C296.158 36.32 295.51 36.96 294.646 37.472C293.798 37.968 292.806 38.216 291.67 38.216C290.502 38.216 289.446 37.928 288.502 37.352C287.558 36.776 286.814 35.968 286.27 34.928C285.726 33.888 285.454 32.704 285.454 31.376ZM296.59 31.4C296.59 30.408 296.39 29.544 295.99 28.808C295.59 28.072 295.046 27.512 294.358 27.128C293.686 26.728 292.942 26.528 292.126 26.528C291.31 26.528 290.566 26.72 289.894 27.104C289.222 27.488 288.686 28.048 288.286 28.784C287.886 29.52 287.686 30.384 287.686 31.376C287.686 32.384 287.886 33.264 288.286 34.016C288.686 34.752 289.222 35.32 289.894 35.72C290.566 36.104 291.31 36.296 292.126 36.296C292.942 36.296 293.686 36.104 294.358 35.72C295.046 35.32 295.59 34.752 295.99 34.016C296.39 33.264 296.59 32.392 296.59 31.4ZM308.897 24.608C310.497 24.608 311.793 25.096 312.785 26.072C313.777 27.032 314.273 28.424 314.273 30.248V38H312.113V30.56C312.113 29.248 311.785 28.248 311.129 27.56C310.473 26.856 309.577 26.504 308.441 26.504C307.289 26.504 306.369 26.864 305.681 27.584C305.009 28.304 304.673 29.352 304.673 30.728V38H302.489V24.848H304.673V26.72C305.105 26.048 305.689 25.528 306.425 25.16C307.177 24.792 308.001 24.608 308.897 24.608ZM320.504 26.648V34.4C320.504 35.04 320.64 35.496 320.912 35.768C321.184 36.024 321.656 36.152 322.328 36.152H323.936V38H321.968C320.752 38 319.84 37.72 319.232 37.16C318.624 36.6 318.32 35.68 318.32 34.4V26.648H316.616V24.848H318.32V21.536H320.504V24.848H323.936V26.648H320.504ZM329.318 40.544H327.134V18.92H329.318V40.544Z" fill="#93969A"/>
<path d="M36.0835 32.3333H35.1619L34.8352 32.0183C35.5643 31.1713 36.0972 30.1735 36.3957 29.0965C36.6942 28.0195 36.7509 26.8898 36.5619 25.7883C36.0135 22.545 33.3069 19.955 30.0402 19.5583C28.8918 19.413 27.7253 19.5324 26.6301 19.9072C25.5349 20.2821 24.5399 20.9026 23.7214 21.7211C22.9028 22.5397 22.2824 23.5346 21.9075 24.6298C21.5326 25.7251 21.4133 26.8915 21.5585 28.04C21.9552 31.3066 24.5452 34.0133 27.7885 34.5616C28.8901 34.7507 30.0197 34.6939 31.0968 34.3954C32.1738 34.0969 33.1715 33.5641 34.0185 32.835L34.3335 33.1616V34.0833L39.2919 39.0416C39.7702 39.52 40.5519 39.52 41.0302 39.0416C41.5085 38.5633 41.5085 37.7816 41.0302 37.3033L36.0835 32.3333ZM29.0835 32.3333C26.1785 32.3333 23.8335 29.9883 23.8335 27.0833C23.8335 24.1783 26.1785 21.8333 29.0835 21.8333C31.9885 21.8333 34.3335 24.1783 34.3335 27.0833C34.3335 29.9883 31.9885 32.3333 29.0835 32.3333Z" fill="#55575A"/>
</g>
<rect x="41" y="74" width="808" height="288" rx="20" fill="#3B3B3B"/>
<path d="M99.8956 123.583H98.6777L98.246 123.167C99.2095 122.048 99.9136 120.729 100.308 119.306C100.703 117.883 100.778 116.39 100.528 114.935C99.8031 110.649 96.2264 107.226 91.9098 106.702C90.3922 106.51 88.8508 106.668 87.4035 107.163C85.9563 107.659 84.6415 108.478 83.5599 109.56C82.4782 110.642 81.6583 111.957 81.163 113.404C80.6676 114.851 80.5099 116.392 80.7019 117.91C81.226 122.227 84.6485 125.803 88.9344 126.528C90.3899 126.778 91.8827 126.703 93.3059 126.308C94.7291 125.914 96.0476 125.21 97.1669 124.246L97.5831 124.678V125.896L104.135 132.448C104.767 133.08 105.8 133.08 106.432 132.448C107.064 131.816 107.064 130.783 106.432 130.151L99.8956 123.583ZM90.6456 123.583C86.8069 123.583 83.7081 120.485 83.7081 116.646C83.7081 112.807 86.8069 109.708 90.6456 109.708C94.4844 109.708 97.5831 112.807 97.5831 116.646C97.5831 120.485 94.4844 123.583 90.6456 123.583Z" fill="#55575A"/>
<path d="M138.224 119.384C138.832 119.48 139.384 119.728 139.88 120.128C140.392 120.528 140.792 121.024 141.08 121.616C141.384 122.208 141.536 122.84 141.536 123.512C141.536 124.36 141.32 125.128 140.888 125.816C140.456 126.488 139.824 127.024 138.992 127.424C138.176 127.808 137.208 128 136.088 128H129.848V111.272H135.848C136.984 111.272 137.952 111.464 138.752 111.848C139.552 112.216 140.152 112.72 140.552 113.36C140.952 114 141.152 114.72 141.152 115.52C141.152 116.512 140.88 117.336 140.336 117.992C139.808 118.632 139.104 119.096 138.224 119.384ZM132.032 118.496H135.704C136.728 118.496 137.52 118.256 138.08 117.776C138.64 117.296 138.92 116.632 138.92 115.784C138.92 114.936 138.64 114.272 138.08 113.792C137.52 113.312 136.712 113.072 135.656 113.072H132.032V118.496ZM135.896 126.2C136.984 126.2 137.832 125.944 138.44 125.432C139.048 124.92 139.352 124.208 139.352 123.296C139.352 122.368 139.032 121.64 138.392 121.112C137.752 120.568 136.896 120.296 135.824 120.296H132.032V126.2H135.896ZM156.567 120.92C156.567 121.336 156.543 121.776 156.495 122.24H145.983C146.063 123.536 146.503 124.552 147.303 125.288C148.119 126.008 149.103 126.368 150.255 126.368C151.199 126.368 151.983 126.152 152.607 125.72C153.247 125.272 153.695 124.68 153.951 123.944H156.303C155.951 125.208 155.247 126.24 154.191 127.04C153.135 127.824 151.823 128.216 150.255 128.216C149.007 128.216 147.887 127.936 146.895 127.376C145.919 126.816 145.151 126.024 144.591 125C144.031 123.96 143.751 122.76 143.751 121.4C143.751 120.04 144.023 118.848 144.567 117.824C145.111 116.8 145.871 116.016 146.847 115.472C147.839 114.912 148.975 114.632 150.255 114.632C151.503 114.632 152.607 114.904 153.567 115.448C154.527 115.992 155.263 116.744 155.775 117.704C156.303 118.648 156.567 119.72 156.567 120.92ZM154.311 120.464C154.311 119.632 154.127 118.92 153.759 118.328C153.391 117.72 152.887 117.264 152.247 116.96C151.623 116.64 150.927 116.48 150.159 116.48C149.055 116.48 148.111 116.832 147.327 117.536C146.559 118.24 146.119 119.216 146.007 120.464H154.311ZM164.106 128.216C163.098 128.216 162.194 128.048 161.394 127.712C160.594 127.36 159.962 126.88 159.498 126.272C159.034 125.648 158.778 124.936 158.73 124.136H160.986C161.05 124.792 161.354 125.328 161.898 125.744C162.458 126.16 163.186 126.368 164.082 126.368C164.914 126.368 165.57 126.184 166.05 125.816C166.53 125.448 166.77 124.984 166.77 124.424C166.77 123.848 166.514 123.424 166.002 123.152C165.49 122.864 164.698 122.584 163.626 122.312C162.65 122.056 161.85 121.8 161.226 121.544C160.618 121.272 160.09 120.88 159.642 120.368C159.21 119.84 158.994 119.152 158.994 118.304C158.994 117.632 159.194 117.016 159.594 116.456C159.994 115.896 160.562 115.456 161.298 115.136C162.034 114.8 162.874 114.632 163.818 114.632C165.274 114.632 166.45 115 167.346 115.736C168.242 116.472 168.722 117.48 168.786 118.76H166.602C166.554 118.072 166.274 117.52 165.762 117.104C165.266 116.688 164.594 116.48 163.746 116.48C162.962 116.48 162.338 116.648 161.874 116.984C161.41 117.32 161.178 117.76 161.178 118.304C161.178 118.736 161.314 119.096 161.586 119.384C161.874 119.656 162.226 119.88 162.642 120.056C163.074 120.216 163.666 120.4 164.418 120.608C165.362 120.864 166.13 121.12 166.722 121.376C167.314 121.616 167.818 121.984 168.234 122.48C168.666 122.976 168.89 123.624 168.906 124.424C168.906 125.144 168.706 125.792 168.306 126.368C167.906 126.944 167.338 127.4 166.602 127.736C165.882 128.056 165.05 128.216 164.106 128.216ZM174.653 116.648V124.4C174.653 125.04 174.789 125.496 175.061 125.768C175.333 126.024 175.805 126.152 176.477 126.152H178.085V128H176.117C174.901 128 173.989 127.72 173.381 127.16C172.773 126.6 172.469 125.68 172.469 124.4V116.648H170.765V114.848H172.469V111.536H174.653V114.848H178.085V116.648H174.653ZM192.433 128.168C191.329 128.168 190.337 127.976 189.457 127.592C188.593 127.192 187.913 126.648 187.417 125.96C186.921 125.256 186.665 124.448 186.649 123.536H188.977C189.057 124.32 189.377 124.984 189.937 125.528C190.513 126.056 191.345 126.32 192.433 126.32C193.473 126.32 194.289 126.064 194.881 125.552C195.489 125.024 195.793 124.352 195.793 123.536C195.793 122.896 195.617 122.376 195.265 121.976C194.913 121.576 194.473 121.272 193.945 121.064C193.417 120.856 192.705 120.632 191.809 120.392C190.705 120.104 189.817 119.816 189.145 119.528C188.489 119.24 187.921 118.792 187.441 118.184C186.977 117.56 186.745 116.728 186.745 115.688C186.745 114.776 186.977 113.968 187.441 113.264C187.905 112.56 188.553 112.016 189.385 111.632C190.233 111.248 191.201 111.056 192.289 111.056C193.857 111.056 195.137 111.448 196.129 112.232C197.137 113.016 197.705 114.056 197.833 115.352H195.433C195.353 114.712 195.017 114.152 194.425 113.672C193.833 113.176 193.049 112.928 192.073 112.928C191.161 112.928 190.417 113.168 189.841 113.648C189.265 114.112 188.977 114.768 188.977 115.616C188.977 116.224 189.145 116.72 189.481 117.104C189.833 117.488 190.257 117.784 190.753 117.992C191.265 118.184 191.977 118.408 192.889 118.664C193.993 118.968 194.881 119.272 195.553 119.576C196.225 119.864 196.801 120.32 197.281 120.944C197.761 121.552 198.001 122.384 198.001 123.44C198.001 124.256 197.785 125.024 197.353 125.744C196.921 126.464 196.281 127.048 195.433 127.496C194.585 127.944 193.585 128.168 192.433 128.168ZM203.399 113.048V118.64H209.495V120.44H203.399V126.2H210.215V128H201.215V111.248H210.215V113.048H203.399ZM221.104 128.168C219.552 128.168 218.136 127.808 216.856 127.088C215.576 126.352 214.56 125.336 213.808 124.04C213.072 122.728 212.704 121.256 212.704 119.624C212.704 117.992 213.072 116.528 213.808 115.232C214.56 113.92 215.576 112.904 216.856 112.184C218.136 111.448 219.552 111.08 221.104 111.08C222.672 111.08 224.096 111.448 225.376 112.184C226.656 112.904 227.664 113.912 228.4 115.208C229.136 116.504 229.504 117.976 229.504 119.624C229.504 121.272 229.136 122.744 228.4 124.04C227.664 125.336 226.656 126.352 225.376 127.088C224.096 127.808 222.672 128.168 221.104 128.168ZM221.104 126.272C222.272 126.272 223.32 126 224.248 125.456C225.192 124.912 225.928 124.136 226.456 123.128C227 122.12 227.272 120.952 227.272 119.624C227.272 118.28 227 117.112 226.456 116.12C225.928 115.112 225.2 114.336 224.272 113.792C223.344 113.248 222.288 112.976 221.104 112.976C219.92 112.976 218.864 113.248 217.936 113.792C217.008 114.336 216.272 115.112 215.728 116.12C215.2 117.112 214.936 118.28 214.936 119.624C214.936 120.952 215.2 122.12 215.728 123.128C216.272 124.136 217.008 124.912 217.936 125.456C218.88 126 219.936 126.272 221.104 126.272ZM240.97 113.048V118.64H247.066V120.44H240.97V126.2H247.786V128H238.786V111.248H247.786V113.048H240.97ZM257.954 128L254.834 123.104L251.834 128H249.554L253.802 121.472L249.554 114.848H252.026L255.146 119.72L258.122 114.848H260.402L256.178 121.352L260.426 128H257.954ZM264.759 117.272C265.191 116.52 265.831 115.896 266.679 115.4C267.543 114.888 268.543 114.632 269.679 114.632C270.847 114.632 271.903 114.912 272.847 115.472C273.807 116.032 274.559 116.824 275.103 117.848C275.647 118.856 275.919 120.032 275.919 121.376C275.919 122.704 275.647 123.888 275.103 124.928C274.559 125.968 273.807 126.776 272.847 127.352C271.903 127.928 270.847 128.216 269.679 128.216C268.559 128.216 267.567 127.968 266.703 127.472C265.855 126.96 265.207 126.328 264.759 125.576V134.24H262.575V114.848H264.759V117.272ZM273.687 121.376C273.687 120.384 273.487 119.52 273.087 118.784C272.687 118.048 272.143 117.488 271.455 117.104C270.783 116.72 270.039 116.528 269.223 116.528C268.423 116.528 267.679 116.728 266.991 117.128C266.319 117.512 265.775 118.08 265.359 118.832C264.959 119.568 264.759 120.424 264.759 121.4C264.759 122.392 264.959 123.264 265.359 124.016C265.775 124.752 266.319 125.32 266.991 125.72C267.679 126.104 268.423 126.296 269.223 126.296C270.039 126.296 270.783 126.104 271.455 125.72C272.143 125.32 272.687 124.752 273.087 124.016C273.487 123.264 273.687 122.384 273.687 121.376ZM290.793 120.92C290.793 121.336 290.769 121.776 290.721 122.24H280.209C280.289 123.536 280.729 124.552 281.529 125.288C282.345 126.008 283.329 126.368 284.481 126.368C285.425 126.368 286.209 126.152 286.833 125.72C287.473 125.272 287.921 124.68 288.177 123.944H290.529C290.177 125.208 289.473 126.24 288.417 127.04C287.361 127.824 286.049 128.216 284.481 128.216C283.233 128.216 282.113 127.936 281.121 127.376C280.145 126.816 279.377 126.024 278.817 125C278.257 123.96 277.977 122.76 277.977 121.4C277.977 120.04 278.249 118.848 278.793 117.824C279.337 116.8 280.097 116.016 281.073 115.472C282.065 114.912 283.201 114.632 284.481 114.632C285.729 114.632 286.833 114.904 287.793 115.448C288.753 115.992 289.489 116.744 290.001 117.704C290.529 118.648 290.793 119.72 290.793 120.92ZM288.537 120.464C288.537 119.632 288.353 118.92 287.985 118.328C287.617 117.72 287.113 117.264 286.473 116.96C285.849 116.64 285.153 116.48 284.385 116.48C283.281 116.48 282.337 116.832 281.553 117.536C280.785 118.24 280.345 119.216 280.233 120.464H288.537ZM295.86 116.984C296.244 116.232 296.788 115.648 297.492 115.232C298.212 114.816 299.084 114.608 300.108 114.608V116.864H299.532C297.084 116.864 295.86 118.192 295.86 120.848V128H293.676V114.848H295.86V116.984ZM305.293 116.648V124.4C305.293 125.04 305.429 125.496 305.701 125.768C305.973 126.024 306.445 126.152 307.117 126.152H308.725V128H306.757C305.541 128 304.629 127.72 304.021 127.16C303.413 126.6 303.109 125.68 303.109 124.4V116.648H301.405V114.848H303.109V111.536H305.293V114.848H308.725V116.648H305.293Z" fill="#C0C0C0"/>
<path d="M99.8956 188.583H98.6777L98.246 188.167C99.2095 187.048 99.9136 185.729 100.308 184.306C100.703 182.883 100.778 181.39 100.528 179.935C99.8031 175.649 96.2264 172.226 91.9098 171.702C90.3922 171.51 88.8508 171.668 87.4035 172.163C85.9563 172.659 84.6415 173.478 83.5599 174.56C82.4782 175.642 81.6583 176.957 81.163 178.404C80.6676 179.851 80.5099 181.392 80.7019 182.91C81.226 187.227 84.6485 190.803 88.9344 191.528C90.3899 191.778 91.8827 191.703 93.3059 191.308C94.7291 190.914 96.0476 190.21 97.1669 189.246L97.5831 189.678V190.896L104.135 197.448C104.767 198.08 105.8 198.08 106.432 197.448C107.064 196.816 107.064 195.783 106.432 195.151L99.8956 188.583ZM90.6456 188.583C86.8069 188.583 83.7081 185.485 83.7081 181.646C83.7081 177.807 86.8069 174.708 90.6456 174.708C94.4844 174.708 97.5831 177.807 97.5831 181.646C97.5831 185.485 94.4844 188.583 90.6456 188.583Z" fill="#55575A"/>
<path d="M136.152 193.168C135.048 193.168 134.056 192.976 133.176 192.592C132.312 192.192 131.632 191.648 131.136 190.96C130.64 190.256 130.384 189.448 130.368 188.536H132.696C132.776 189.32 133.096 189.984 133.656 190.528C134.232 191.056 135.064 191.32 136.152 191.32C137.192 191.32 138.008 191.064 138.6 190.552C139.208 190.024 139.512 189.352 139.512 188.536C139.512 187.896 139.336 187.376 138.984 186.976C138.632 186.576 138.192 186.272 137.664 186.064C137.136 185.856 136.424 185.632 135.528 185.392C134.424 185.104 133.536 184.816 132.864 184.528C132.208 184.24 131.64 183.792 131.16 183.184C130.696 182.56 130.464 181.728 130.464 180.688C130.464 179.776 130.696 178.968 131.16 178.264C131.624 177.56 132.272 177.016 133.104 176.632C133.952 176.248 134.92 176.056 136.008 176.056C137.576 176.056 138.856 176.448 139.848 177.232C140.856 178.016 141.424 179.056 141.552 180.352H139.152C139.072 179.712 138.736 179.152 138.144 178.672C137.552 178.176 136.768 177.928 135.792 177.928C134.88 177.928 134.136 178.168 133.56 178.648C132.984 179.112 132.696 179.768 132.696 180.616C132.696 181.224 132.864 181.72 133.2 182.104C133.552 182.488 133.976 182.784 134.472 182.992C134.984 183.184 135.696 183.408 136.608 183.664C137.712 183.968 138.6 184.272 139.272 184.576C139.944 184.864 140.52 185.32 141 185.944C141.48 186.552 141.72 187.384 141.72 188.44C141.72 189.256 141.504 190.024 141.072 190.744C140.64 191.464 140 192.048 139.152 192.496C138.304 192.944 137.304 193.168 136.152 193.168ZM151.462 179.608C152.454 179.608 153.35 179.824 154.15 180.256C154.95 180.672 155.574 181.304 156.022 182.152C156.486 183 156.718 184.032 156.718 185.248V193H154.558V185.56C154.558 184.248 154.23 183.248 153.574 182.56C152.918 181.856 152.022 181.504 150.886 181.504C149.734 181.504 148.814 181.864 148.126 182.584C147.454 183.304 147.118 184.352 147.118 185.728V193H144.934V175.24H147.118V181.72C147.55 181.048 148.142 180.528 148.894 180.16C149.662 179.792 150.518 179.608 151.462 179.608ZM159.47 186.376C159.47 185.032 159.742 183.856 160.286 182.848C160.83 181.824 161.574 181.032 162.518 180.472C163.478 179.912 164.542 179.632 165.71 179.632C166.862 179.632 167.862 179.88 168.71 180.376C169.558 180.872 170.19 181.496 170.606 182.248V179.848H172.814V193H170.606V190.552C170.174 191.32 169.526 191.96 168.662 192.472C167.814 192.968 166.822 193.216 165.686 193.216C164.518 193.216 163.462 192.928 162.518 192.352C161.574 191.776 160.83 190.968 160.286 189.928C159.742 188.888 159.47 187.704 159.47 186.376ZM170.606 186.4C170.606 185.408 170.406 184.544 170.006 183.808C169.606 183.072 169.062 182.512 168.374 182.128C167.702 181.728 166.958 181.528 166.142 181.528C165.326 181.528 164.582 181.72 163.91 182.104C163.238 182.488 162.702 183.048 162.302 183.784C161.902 184.52 161.702 185.384 161.702 186.376C161.702 187.384 161.902 188.264 162.302 189.016C162.702 189.752 163.238 190.32 163.91 190.72C164.582 191.104 165.326 191.296 166.142 191.296C166.958 191.296 167.702 191.104 168.374 190.72C169.062 190.32 169.606 189.752 170.006 189.016C170.406 188.264 170.606 187.392 170.606 186.4ZM183.032 179.608C184.024 179.608 184.92 179.824 185.72 180.256C186.52 180.672 187.144 181.304 187.592 182.152C188.056 183 188.288 184.032 188.288 185.248V193H186.128V185.56C186.128 184.248 185.8 183.248 185.144 182.56C184.488 181.856 183.592 181.504 182.456 181.504C181.304 181.504 180.384 181.864 179.696 182.584C179.024 183.304 178.688 184.352 178.688 185.728V193H176.504V175.24H178.688V181.72C179.12 181.048 179.712 180.528 180.464 180.16C181.232 179.792 182.088 179.608 183.032 179.608ZM192.984 177.712C192.568 177.712 192.216 177.568 191.928 177.28C191.64 176.992 191.496 176.64 191.496 176.224C191.496 175.808 191.64 175.456 191.928 175.168C192.216 174.88 192.568 174.736 192.984 174.736C193.384 174.736 193.72 174.88 193.992 175.168C194.28 175.456 194.424 175.808 194.424 176.224C194.424 176.64 194.28 176.992 193.992 177.28C193.72 177.568 193.384 177.712 192.984 177.712ZM194.04 179.848V193H191.856V179.848H194.04ZM196.946 186.376C196.946 185.032 197.218 183.856 197.762 182.848C198.306 181.824 199.05 181.032 199.994 180.472C200.954 179.912 202.026 179.632 203.21 179.632C204.234 179.632 205.186 179.872 206.066 180.352C206.946 180.816 207.618 181.432 208.082 182.2V175.24H210.29V193H208.082V190.528C207.65 191.312 207.01 191.96 206.162 192.472C205.314 192.968 204.322 193.216 203.186 193.216C202.018 193.216 200.954 192.928 199.994 192.352C199.05 191.776 198.306 190.968 197.762 189.928C197.218 188.888 196.946 187.704 196.946 186.376ZM208.082 186.4C208.082 185.408 207.882 184.544 207.482 183.808C207.082 183.072 206.538 182.512 205.85 182.128C205.178 181.728 204.434 181.528 203.618 181.528C202.802 181.528 202.058 181.72 201.386 182.104C200.714 182.488 200.178 183.048 199.778 183.784C199.378 184.52 199.178 185.384 199.178 186.376C199.178 187.384 199.378 188.264 199.778 189.016C200.178 189.752 200.714 190.32 201.386 190.72C202.058 191.104 202.802 191.296 203.618 191.296C204.434 191.296 205.178 191.104 205.85 190.72C206.538 190.32 207.082 189.752 207.482 189.016C207.882 188.264 208.082 187.392 208.082 186.4ZM222.563 178.048V183.64H228.659V185.44H222.563V191.2H229.379V193H220.379V176.248H229.379V178.048H222.563ZM239.548 193L236.428 188.104L233.428 193H231.148L235.396 186.472L231.148 179.848H233.62L236.74 184.72L239.716 179.848H241.996L237.772 186.352L242.02 193H239.548ZM246.352 182.272C246.784 181.52 247.424 180.896 248.272 180.4C249.136 179.888 250.136 179.632 251.272 179.632C252.44 179.632 253.496 179.912 254.44 180.472C255.4 181.032 256.152 181.824 256.696 182.848C257.24 183.856 257.512 185.032 257.512 186.376C257.512 187.704 257.24 188.888 256.696 189.928C256.152 190.968 255.4 191.776 254.44 192.352C253.496 192.928 252.44 193.216 251.272 193.216C250.152 193.216 249.16 192.968 248.296 192.472C247.448 191.96 246.8 191.328 246.352 190.576V199.24H244.168V179.848H246.352V182.272ZM255.28 186.376C255.28 185.384 255.08 184.52 254.68 183.784C254.28 183.048 253.736 182.488 253.048 182.104C252.376 181.72 251.632 181.528 250.816 181.528C250.016 181.528 249.272 181.728 248.584 182.128C247.912 182.512 247.368 183.08 246.952 183.832C246.552 184.568 246.352 185.424 246.352 186.4C246.352 187.392 246.552 188.264 246.952 189.016C247.368 189.752 247.912 190.32 248.584 190.72C249.272 191.104 250.016 191.296 250.816 191.296C251.632 191.296 252.376 191.104 253.048 190.72C253.736 190.32 254.28 189.752 254.68 189.016C255.08 188.264 255.28 187.384 255.28 186.376ZM272.387 185.92C272.387 186.336 272.363 186.776 272.315 187.24H261.803C261.883 188.536 262.323 189.552 263.123 190.288C263.939 191.008 264.923 191.368 266.075 191.368C267.019 191.368 267.803 191.152 268.427 190.72C269.067 190.272 269.515 189.68 269.771 188.944H272.123C271.771 190.208 271.067 191.24 270.011 192.04C268.955 192.824 267.643 193.216 266.075 193.216C264.827 193.216 263.707 192.936 262.715 192.376C261.739 191.816 260.971 191.024 260.411 190C259.851 188.96 259.571 187.76 259.571 186.4C259.571 185.04 259.843 183.848 260.387 182.824C260.931 181.8 261.691 181.016 262.667 180.472C263.659 179.912 264.795 179.632 266.075 179.632C267.323 179.632 268.427 179.904 269.387 180.448C270.347 180.992 271.083 181.744 271.595 182.704C272.123 183.648 272.387 184.72 272.387 185.92ZM270.131 185.464C270.131 184.632 269.947 183.92 269.579 183.328C269.211 182.72 268.707 182.264 268.067 181.96C267.443 181.64 266.747 181.48 265.979 181.48C264.875 181.48 263.931 181.832 263.147 182.536C262.379 183.24 261.939 184.216 261.827 185.464H270.131ZM277.454 181.984C277.838 181.232 278.382 180.648 279.086 180.232C279.806 179.816 280.678 179.608 281.702 179.608V181.864H281.126C278.678 181.864 277.454 183.192 277.454 185.848V193H275.27V179.848H277.454V181.984ZM286.887 181.648V189.4C286.887 190.04 287.023 190.496 287.295 190.768C287.567 191.024 288.039 191.152 288.711 191.152H290.319V193H288.351C287.135 193 286.223 192.72 285.615 192.16C285.007 191.6 284.703 190.68 284.703 189.4V181.648H282.999V179.848H284.703V176.536H286.887V179.848H290.319V181.648H286.887ZM304.668 193.168C303.564 193.168 302.572 192.976 301.692 192.592C300.828 192.192 300.148 191.648 299.652 190.96C299.156 190.256 298.9 189.448 298.884 188.536H301.212C301.292 189.32 301.612 189.984 302.172 190.528C302.748 191.056 303.58 191.32 304.668 191.32C305.708 191.32 306.524 191.064 307.116 190.552C307.724 190.024 308.028 189.352 308.028 188.536C308.028 187.896 307.852 187.376 307.5 186.976C307.148 186.576 306.708 186.272 306.18 186.064C305.652 185.856 304.94 185.632 304.044 185.392C302.94 185.104 302.052 184.816 301.38 184.528C300.724 184.24 300.156 183.792 299.676 183.184C299.212 182.56 298.98 181.728 298.98 180.688C298.98 179.776 299.212 178.968 299.676 178.264C300.14 177.56 300.788 177.016 301.62 176.632C302.468 176.248 303.436 176.056 304.524 176.056C306.092 176.056 307.372 176.448 308.364 177.232C309.372 178.016 309.94 179.056 310.068 180.352H307.668C307.588 179.712 307.252 179.152 306.66 178.672C306.068 178.176 305.284 177.928 304.308 177.928C303.396 177.928 302.652 178.168 302.076 178.648C301.5 179.112 301.212 179.768 301.212 180.616C301.212 181.224 301.38 181.72 301.716 182.104C302.068 182.488 302.492 182.784 302.988 182.992C303.5 183.184 304.212 183.408 305.124 183.664C306.228 183.968 307.116 184.272 307.788 184.576C308.46 184.864 309.036 185.32 309.516 185.944C309.996 186.552 310.236 187.384 310.236 188.44C310.236 189.256 310.02 190.024 309.588 190.744C309.156 191.464 308.516 192.048 307.668 192.496C306.82 192.944 305.82 193.168 304.668 193.168ZM315.634 178.048V183.64H321.73V185.44H315.634V191.2H322.45V193H313.45V176.248H322.45V178.048H315.634ZM333.338 193.168C331.786 193.168 330.37 192.808 329.09 192.088C327.81 191.352 326.794 190.336 326.042 189.04C325.306 187.728 324.938 186.256 324.938 184.624C324.938 182.992 325.306 181.528 326.042 180.232C326.794 178.92 327.81 177.904 329.09 177.184C330.37 176.448 331.786 176.08 333.338 176.08C334.906 176.08 336.33 176.448 337.61 177.184C338.89 177.904 339.898 178.912 340.634 180.208C341.37 181.504 341.738 182.976 341.738 184.624C341.738 186.272 341.37 187.744 340.634 189.04C339.898 190.336 338.89 191.352 337.61 192.088C336.33 192.808 334.906 193.168 333.338 193.168ZM333.338 191.272C334.506 191.272 335.554 191 336.482 190.456C337.426 189.912 338.162 189.136 338.69 188.128C339.234 187.12 339.506 185.952 339.506 184.624C339.506 183.28 339.234 182.112 338.69 181.12C338.162 180.112 337.434 179.336 336.506 178.792C335.578 178.248 334.522 177.976 333.338 177.976C332.154 177.976 331.098 178.248 330.17 178.792C329.242 179.336 328.506 180.112 327.962 181.12C327.434 182.112 327.17 183.28 327.17 184.624C327.17 185.952 327.434 187.12 327.962 188.128C328.506 189.136 329.242 189.912 330.17 190.456C331.114 191 332.17 191.272 333.338 191.272ZM350.204 184.624C350.204 182.992 350.572 181.528 351.308 180.232C352.044 178.92 353.044 177.896 354.308 177.16C355.588 176.424 357.004 176.056 358.556 176.056C360.38 176.056 361.972 176.496 363.332 177.376C364.692 178.256 365.684 179.504 366.308 181.12H363.692C363.228 180.112 362.556 179.336 361.676 178.792C360.812 178.248 359.772 177.976 358.556 177.976C357.388 177.976 356.34 178.248 355.412 178.792C354.484 179.336 353.756 180.112 353.228 181.12C352.7 182.112 352.436 183.28 352.436 184.624C352.436 185.952 352.7 187.12 353.228 188.128C353.756 189.12 354.484 189.888 355.412 190.432C356.34 190.976 357.388 191.248 358.556 191.248C359.772 191.248 360.812 190.984 361.676 190.456C362.556 189.912 363.228 189.136 363.692 188.128H366.308C365.684 189.728 364.692 190.968 363.332 191.848C361.972 192.712 360.38 193.144 358.556 193.144C357.004 193.144 355.588 192.784 354.308 192.064C353.044 191.328 352.044 190.312 351.308 189.016C350.572 187.72 350.204 186.256 350.204 184.624ZM375.295 193.216C374.063 193.216 372.943 192.936 371.935 192.376C370.943 191.816 370.159 191.024 369.583 190C369.023 188.96 368.743 187.76 368.743 186.4C368.743 185.056 369.031 183.872 369.607 182.848C370.199 181.808 370.999 181.016 372.007 180.472C373.015 179.912 374.143 179.632 375.391 179.632C376.639 179.632 377.767 179.912 378.775 180.472C379.783 181.016 380.575 181.8 381.151 182.824C381.743 183.848 382.039 185.04 382.039 186.4C382.039 187.76 381.735 188.96 381.127 190C380.535 191.024 379.727 191.816 378.703 192.376C377.679 192.936 376.543 193.216 375.295 193.216ZM375.295 191.296C376.079 191.296 376.815 191.112 377.503 190.744C378.191 190.376 378.743 189.824 379.159 189.088C379.591 188.352 379.807 187.456 379.807 186.4C379.807 185.344 379.599 184.448 379.183 183.712C378.767 182.976 378.223 182.432 377.551 182.08C376.879 181.712 376.151 181.528 375.367 181.528C374.567 181.528 373.831 181.712 373.159 182.08C372.503 182.432 371.975 182.976 371.575 183.712C371.175 184.448 370.975 185.344 370.975 186.4C370.975 187.472 371.167 188.376 371.551 189.112C371.951 189.848 372.479 190.4 373.135 190.768C373.791 191.12 374.511 191.296 375.295 191.296ZM391.319 179.608C392.919 179.608 394.215 180.096 395.207 181.072C396.199 182.032 396.695 183.424 396.695 185.248V193H394.535V185.56C394.535 184.248 394.207 183.248 393.551 182.56C392.895 181.856 391.999 181.504 390.863 181.504C389.711 181.504 388.791 181.864 388.103 182.584C387.431 183.304 387.095 184.352 387.095 185.728V193H384.911V179.848H387.095V181.72C387.527 181.048 388.111 180.528 388.847 180.16C389.599 179.792 390.423 179.608 391.319 179.608ZM404.918 193.216C403.91 193.216 403.006 193.048 402.206 192.712C401.406 192.36 400.774 191.88 400.31 191.272C399.846 190.648 399.59 189.936 399.542 189.136H401.798C401.862 189.792 402.166 190.328 402.71 190.744C403.27 191.16 403.998 191.368 404.894 191.368C405.726 191.368 406.382 191.184 406.862 190.816C407.342 190.448 407.582 189.984 407.582 189.424C407.582 188.848 407.326 188.424 406.814 188.152C406.302 187.864 405.51 187.584 404.438 187.312C403.462 187.056 402.662 186.8 402.038 186.544C401.43 186.272 400.902 185.88 400.454 185.368C400.022 184.84 399.806 184.152 399.806 183.304C399.806 182.632 400.006 182.016 400.406 181.456C400.806 180.896 401.374 180.456 402.11 180.136C402.846 179.8 403.686 179.632 404.63 179.632C406.086 179.632 407.262 180 408.158 180.736C409.054 181.472 409.534 182.48 409.598 183.76H407.414C407.366 183.072 407.086 182.52 406.574 182.104C406.078 181.688 405.406 181.48 404.558 181.48C403.774 181.48 403.15 181.648 402.686 181.984C402.222 182.32 401.99 182.76 401.99 183.304C401.99 183.736 402.126 184.096 402.398 184.384C402.686 184.656 403.038 184.88 403.454 185.056C403.886 185.216 404.478 185.4 405.23 185.608C406.174 185.864 406.942 186.12 407.534 186.376C408.126 186.616 408.63 186.984 409.046 187.48C409.478 187.976 409.702 188.624 409.718 189.424C409.718 190.144 409.518 190.792 409.118 191.368C408.718 191.944 408.15 192.4 407.414 192.736C406.694 193.056 405.862 193.216 404.918 193.216ZM424.465 179.848V193H422.281V191.056C421.865 191.728 421.281 192.256 420.529 192.64C419.793 193.008 418.977 193.192 418.081 193.192C417.057 193.192 416.137 192.984 415.321 192.568C414.505 192.136 413.857 191.496 413.377 190.648C412.913 189.8 412.681 188.768 412.681 187.552V179.848H414.841V187.264C414.841 188.56 415.169 189.56 415.825 190.264C416.481 190.952 417.377 191.296 418.513 191.296C419.681 191.296 420.601 190.936 421.273 190.216C421.945 189.496 422.281 188.448 422.281 187.072V179.848H424.465ZM430.337 175.24V193H428.153V175.24H430.337ZM436.723 181.648V189.4C436.723 190.04 436.859 190.496 437.131 190.768C437.403 191.024 437.875 191.152 438.547 191.152H440.155V193H438.187C436.971 193 436.059 192.72 435.451 192.16C434.843 191.6 434.539 190.68 434.539 189.4V181.648H432.835V179.848H434.539V176.536H436.723V179.848H440.155V181.648H436.723ZM441.985 186.376C441.985 185.032 442.257 183.856 442.801 182.848C443.345 181.824 444.089 181.032 445.033 180.472C445.993 179.912 447.057 179.632 448.225 179.632C449.377 179.632 450.377 179.88 451.225 180.376C452.073 180.872 452.705 181.496 453.121 182.248V179.848H455.329V193H453.121V190.552C452.689 191.32 452.041 191.96 451.177 192.472C450.329 192.968 449.337 193.216 448.201 193.216C447.033 193.216 445.977 192.928 445.033 192.352C444.089 191.776 443.345 190.968 442.801 189.928C442.257 188.888 441.985 187.704 441.985 186.376ZM453.121 186.4C453.121 185.408 452.921 184.544 452.521 183.808C452.121 183.072 451.577 182.512 450.889 182.128C450.217 181.728 449.473 181.528 448.657 181.528C447.841 181.528 447.097 181.72 446.425 182.104C445.753 182.488 445.217 183.048 444.817 183.784C444.417 184.52 444.217 185.384 444.217 186.376C444.217 187.384 444.417 188.264 444.817 189.016C445.217 189.752 445.753 190.32 446.425 190.72C447.097 191.104 447.841 191.296 448.657 191.296C449.473 191.296 450.217 191.104 450.889 190.72C451.577 190.32 452.121 189.752 452.521 189.016C452.921 188.264 453.121 187.392 453.121 186.4ZM465.428 179.608C467.028 179.608 468.324 180.096 469.316 181.072C470.308 182.032 470.804 183.424 470.804 185.248V193H468.644V185.56C468.644 184.248 468.316 183.248 467.66 182.56C467.004 181.856 466.108 181.504 464.972 181.504C463.82 181.504 462.9 181.864 462.212 182.584C461.54 183.304 461.204 184.352 461.204 185.728V193H459.02V179.848H461.204V181.72C461.636 181.048 462.22 180.528 462.956 180.16C463.708 179.792 464.532 179.608 465.428 179.608ZM477.035 181.648V189.4C477.035 190.04 477.171 190.496 477.443 190.768C477.715 191.024 478.187 191.152 478.859 191.152H480.467V193H478.499C477.283 193 476.371 192.72 475.763 192.16C475.155 191.6 474.851 190.68 474.851 189.4V181.648H473.147V179.848H474.851V176.536H477.035V179.848H480.467V181.648H477.035Z" fill="#C0C0C0"/>
<path d="M99.8956 253.583H98.6777L98.246 253.167C99.2095 252.048 99.9136 250.729 100.308 249.306C100.703 247.883 100.778 246.39 100.528 244.935C99.8031 240.649 96.2264 237.226 91.9098 236.702C90.3922 236.51 88.8508 236.668 87.4035 237.163C85.9563 237.659 84.6415 238.478 83.5599 239.56C82.4782 240.642 81.6583 241.957 81.163 243.404C80.6676 244.851 80.5099 246.392 80.7019 247.91C81.226 252.227 84.6485 255.803 88.9344 256.528C90.3899 256.778 91.8827 256.703 93.3059 256.308C94.7291 255.914 96.0476 255.21 97.1669 254.246L97.5831 254.678V255.896L104.135 262.448C104.767 263.08 105.8 263.08 106.432 262.448C107.064 261.816 107.064 260.783 106.432 260.151L99.8956 253.583ZM90.6456 253.583C86.8069 253.583 83.7081 250.485 83.7081 246.646C83.7081 242.807 86.8069 239.708 90.6456 239.708C94.4844 239.708 97.5831 242.807 97.5831 246.646C97.5831 250.485 94.4844 253.583 90.6456 253.583Z" fill="#55575A"/>
<path d="M136.152 258.168C135.048 258.168 134.056 257.976 133.176 257.592C132.312 257.192 131.632 256.648 131.136 255.96C130.64 255.256 130.384 254.448 130.368 253.536H132.696C132.776 254.32 133.096 254.984 133.656 255.528C134.232 256.056 135.064 256.32 136.152 256.32C137.192 256.32 138.008 256.064 138.6 255.552C139.208 255.024 139.512 254.352 139.512 253.536C139.512 252.896 139.336 252.376 138.984 251.976C138.632 251.576 138.192 251.272 137.664 251.064C137.136 250.856 136.424 250.632 135.528 250.392C134.424 250.104 133.536 249.816 132.864 249.528C132.208 249.24 131.64 248.792 131.16 248.184C130.696 247.56 130.464 246.728 130.464 245.688C130.464 244.776 130.696 243.968 131.16 243.264C131.624 242.56 132.272 242.016 133.104 241.632C133.952 241.248 134.92 241.056 136.008 241.056C137.576 241.056 138.856 241.448 139.848 242.232C140.856 243.016 141.424 244.056 141.552 245.352H139.152C139.072 244.712 138.736 244.152 138.144 243.672C137.552 243.176 136.768 242.928 135.792 242.928C134.88 242.928 134.136 243.168 133.56 243.648C132.984 244.112 132.696 244.768 132.696 245.616C132.696 246.224 132.864 246.72 133.2 247.104C133.552 247.488 133.976 247.784 134.472 247.992C134.984 248.184 135.696 248.408 136.608 248.664C137.712 248.968 138.6 249.272 139.272 249.576C139.944 249.864 140.52 250.32 141 250.944C141.48 251.552 141.72 252.384 141.72 253.44C141.72 254.256 141.504 255.024 141.072 255.744C140.64 256.464 140 257.048 139.152 257.496C138.304 257.944 137.304 258.168 136.152 258.168ZM151.462 244.608C152.454 244.608 153.35 244.824 154.15 245.256C154.95 245.672 155.574 246.304 156.022 247.152C156.486 248 156.718 249.032 156.718 250.248V258H154.558V250.56C154.558 249.248 154.23 248.248 153.574 247.56C152.918 246.856 152.022 246.504 150.886 246.504C149.734 246.504 148.814 246.864 148.126 247.584C147.454 248.304 147.118 249.352 147.118 250.728V258H144.934V240.24H147.118V246.72C147.55 246.048 148.142 245.528 148.894 245.16C149.662 244.792 150.518 244.608 151.462 244.608ZM159.47 251.376C159.47 250.032 159.742 248.856 160.286 247.848C160.83 246.824 161.574 246.032 162.518 245.472C163.478 244.912 164.542 244.632 165.71 244.632C166.862 244.632 167.862 244.88 168.71 245.376C169.558 245.872 170.19 246.496 170.606 247.248V244.848H172.814V258H170.606V255.552C170.174 256.32 169.526 256.96 168.662 257.472C167.814 257.968 166.822 258.216 165.686 258.216C164.518 258.216 163.462 257.928 162.518 257.352C161.574 256.776 160.83 255.968 160.286 254.928C159.742 253.888 159.47 252.704 159.47 251.376ZM170.606 251.4C170.606 250.408 170.406 249.544 170.006 248.808C169.606 248.072 169.062 247.512 168.374 247.128C167.702 246.728 166.958 246.528 166.142 246.528C165.326 246.528 164.582 246.72 163.91 247.104C163.238 247.488 162.702 248.048 162.302 248.784C161.902 249.52 161.702 250.384 161.702 251.376C161.702 252.384 161.902 253.264 162.302 254.016C162.702 254.752 163.238 255.32 163.91 255.72C164.582 256.104 165.326 256.296 166.142 256.296C166.958 256.296 167.702 256.104 168.374 255.72C169.062 255.32 169.606 254.752 170.006 254.016C170.406 253.264 170.606 252.392 170.606 251.4ZM183.032 244.608C184.024 244.608 184.92 244.824 185.72 245.256C186.52 245.672 187.144 246.304 187.592 247.152C188.056 248 188.288 249.032 188.288 250.248V258H186.128V250.56C186.128 249.248 185.8 248.248 185.144 247.56C184.488 246.856 183.592 246.504 182.456 246.504C181.304 246.504 180.384 246.864 179.696 247.584C179.024 248.304 178.688 249.352 178.688 250.728V258H176.504V240.24H178.688V246.72C179.12 246.048 179.712 245.528 180.464 245.16C181.232 244.792 182.088 244.608 183.032 244.608ZM192.984 242.712C192.568 242.712 192.216 242.568 191.928 242.28C191.64 241.992 191.496 241.64 191.496 241.224C191.496 240.808 191.64 240.456 191.928 240.168C192.216 239.88 192.568 239.736 192.984 239.736C193.384 239.736 193.72 239.88 193.992 240.168C194.28 240.456 194.424 240.808 194.424 241.224C194.424 241.64 194.28 241.992 193.992 242.28C193.72 242.568 193.384 242.712 192.984 242.712ZM194.04 244.848V258H191.856V244.848H194.04ZM196.946 251.376C196.946 250.032 197.218 248.856 197.762 247.848C198.306 246.824 199.05 246.032 199.994 245.472C200.954 244.912 202.026 244.632 203.21 244.632C204.234 244.632 205.186 244.872 206.066 245.352C206.946 245.816 207.618 246.432 208.082 247.2V240.24H210.29V258H208.082V255.528C207.65 256.312 207.01 256.96 206.162 257.472C205.314 257.968 204.322 258.216 203.186 258.216C202.018 258.216 200.954 257.928 199.994 257.352C199.05 256.776 198.306 255.968 197.762 254.928C197.218 253.888 196.946 252.704 196.946 251.376ZM208.082 251.4C208.082 250.408 207.882 249.544 207.482 248.808C207.082 248.072 206.538 247.512 205.85 247.128C205.178 246.728 204.434 246.528 203.618 246.528C202.802 246.528 202.058 246.72 201.386 247.104C200.714 247.488 200.178 248.048 199.778 248.784C199.378 249.52 199.178 250.384 199.178 251.376C199.178 252.384 199.378 253.264 199.778 254.016C200.178 254.752 200.714 255.32 201.386 255.72C202.058 256.104 202.802 256.296 203.618 256.296C204.434 256.296 205.178 256.104 205.85 255.72C206.538 255.32 207.082 254.752 207.482 254.016C207.882 253.264 208.082 252.392 208.082 251.4ZM222.563 243.048V248.64H228.659V250.44H222.563V256.2H229.379V258H220.379V241.248H229.379V243.048H222.563ZM239.548 258L236.428 253.104L233.428 258H231.148L235.396 251.472L231.148 244.848H233.62L236.74 249.72L239.716 244.848H241.996L237.772 251.352L242.02 258H239.548ZM246.352 247.272C246.784 246.52 247.424 245.896 248.272 245.4C249.136 244.888 250.136 244.632 251.272 244.632C252.44 244.632 253.496 244.912 254.44 245.472C255.4 246.032 256.152 246.824 256.696 247.848C257.24 248.856 257.512 250.032 257.512 251.376C257.512 252.704 257.24 253.888 256.696 254.928C256.152 255.968 255.4 256.776 254.44 257.352C253.496 257.928 252.44 258.216 251.272 258.216C250.152 258.216 249.16 257.968 248.296 257.472C247.448 256.96 246.8 256.328 246.352 255.576V264.24H244.168V244.848H246.352V247.272ZM255.28 251.376C255.28 250.384 255.08 249.52 254.68 248.784C254.28 248.048 253.736 247.488 253.048 247.104C252.376 246.72 251.632 246.528 250.816 246.528C250.016 246.528 249.272 246.728 248.584 247.128C247.912 247.512 247.368 248.08 246.952 248.832C246.552 249.568 246.352 250.424 246.352 251.4C246.352 252.392 246.552 253.264 246.952 254.016C247.368 254.752 247.912 255.32 248.584 255.72C249.272 256.104 250.016 256.296 250.816 256.296C251.632 256.296 252.376 256.104 253.048 255.72C253.736 255.32 254.28 254.752 254.68 254.016C255.08 253.264 255.28 252.384 255.28 251.376ZM272.387 250.92C272.387 251.336 272.363 251.776 272.315 252.24H261.803C261.883 253.536 262.323 254.552 263.123 255.288C263.939 256.008 264.923 256.368 266.075 256.368C267.019 256.368 267.803 256.152 268.427 255.72C269.067 255.272 269.515 254.68 269.771 253.944H272.123C271.771 255.208 271.067 256.24 270.011 257.04C268.955 257.824 267.643 258.216 266.075 258.216C264.827 258.216 263.707 257.936 262.715 257.376C261.739 256.816 260.971 256.024 260.411 255C259.851 253.96 259.571 252.76 259.571 251.4C259.571 250.04 259.843 248.848 260.387 247.824C260.931 246.8 261.691 246.016 262.667 245.472C263.659 244.912 264.795 244.632 266.075 244.632C267.323 244.632 268.427 244.904 269.387 245.448C270.347 245.992 271.083 246.744 271.595 247.704C272.123 248.648 272.387 249.72 272.387 250.92ZM270.131 250.464C270.131 249.632 269.947 248.92 269.579 248.328C269.211 247.72 268.707 247.264 268.067 246.96C267.443 246.64 266.747 246.48 265.979 246.48C264.875 246.48 263.931 246.832 263.147 247.536C262.379 248.24 261.939 249.216 261.827 250.464H270.131ZM277.454 246.984C277.838 246.232 278.382 245.648 279.086 245.232C279.806 244.816 280.678 244.608 281.702 244.608V246.864H281.126C278.678 246.864 277.454 248.192 277.454 250.848V258H275.27V244.848H277.454V246.984ZM286.887 246.648V254.4C286.887 255.04 287.023 255.496 287.295 255.768C287.567 256.024 288.039 256.152 288.711 256.152H290.319V258H288.351C287.135 258 286.223 257.72 285.615 257.16C285.007 256.6 284.703 255.68 284.703 254.4V246.648H282.999V244.848H284.703V241.536H286.887V244.848H290.319V246.648H286.887ZM304.668 258.168C303.564 258.168 302.572 257.976 301.692 257.592C300.828 257.192 300.148 256.648 299.652 255.96C299.156 255.256 298.9 254.448 298.884 253.536H301.212C301.292 254.32 301.612 254.984 302.172 255.528C302.748 256.056 303.58 256.32 304.668 256.32C305.708 256.32 306.524 256.064 307.116 255.552C307.724 255.024 308.028 254.352 308.028 253.536C308.028 252.896 307.852 252.376 307.5 251.976C307.148 251.576 306.708 251.272 306.18 251.064C305.652 250.856 304.94 250.632 304.044 250.392C302.94 250.104 302.052 249.816 301.38 249.528C300.724 249.24 300.156 248.792 299.676 248.184C299.212 247.56 298.98 246.728 298.98 245.688C298.98 244.776 299.212 243.968 299.676 243.264C300.14 242.56 300.788 242.016 301.62 241.632C302.468 241.248 303.436 241.056 304.524 241.056C306.092 241.056 307.372 241.448 308.364 242.232C309.372 243.016 309.94 244.056 310.068 245.352H307.668C307.588 244.712 307.252 244.152 306.66 243.672C306.068 243.176 305.284 242.928 304.308 242.928C303.396 242.928 302.652 243.168 302.076 243.648C301.5 244.112 301.212 244.768 301.212 245.616C301.212 246.224 301.38 246.72 301.716 247.104C302.068 247.488 302.492 247.784 302.988 247.992C303.5 248.184 304.212 248.408 305.124 248.664C306.228 248.968 307.116 249.272 307.788 249.576C308.46 249.864 309.036 250.32 309.516 250.944C309.996 251.552 310.236 252.384 310.236 253.44C310.236 254.256 310.02 255.024 309.588 255.744C309.156 256.464 308.516 257.048 307.668 257.496C306.82 257.944 305.82 258.168 304.668 258.168ZM315.634 243.048V248.64H321.73V250.44H315.634V256.2H322.45V258H313.45V241.248H322.45V243.048H315.634ZM333.338 258.168C331.786 258.168 330.37 257.808 329.09 257.088C327.81 256.352 326.794 255.336 326.042 254.04C325.306 252.728 324.938 251.256 324.938 249.624C324.938 247.992 325.306 246.528 326.042 245.232C326.794 243.92 327.81 242.904 329.09 242.184C330.37 241.448 331.786 241.08 333.338 241.08C334.906 241.08 336.33 241.448 337.61 242.184C338.89 242.904 339.898 243.912 340.634 245.208C341.37 246.504 341.738 247.976 341.738 249.624C341.738 251.272 341.37 252.744 340.634 254.04C339.898 255.336 338.89 256.352 337.61 257.088C336.33 257.808 334.906 258.168 333.338 258.168ZM333.338 256.272C334.506 256.272 335.554 256 336.482 255.456C337.426 254.912 338.162 254.136 338.69 253.128C339.234 252.12 339.506 250.952 339.506 249.624C339.506 248.28 339.234 247.112 338.69 246.12C338.162 245.112 337.434 244.336 336.506 243.792C335.578 243.248 334.522 242.976 333.338 242.976C332.154 242.976 331.098 243.248 330.17 243.792C329.242 244.336 328.506 245.112 327.962 246.12C327.434 247.112 327.17 248.28 327.17 249.624C327.17 250.952 327.434 252.12 327.962 253.128C328.506 254.136 329.242 254.912 330.17 255.456C331.114 256 332.17 256.272 333.338 256.272ZM350.204 249.624C350.204 247.992 350.572 246.528 351.308 245.232C352.044 243.92 353.044 242.896 354.308 242.16C355.588 241.424 357.004 241.056 358.556 241.056C360.38 241.056 361.972 241.496 363.332 242.376C364.692 243.256 365.684 244.504 366.308 246.12H363.692C363.228 245.112 362.556 244.336 361.676 243.792C360.812 243.248 359.772 242.976 358.556 242.976C357.388 242.976 356.34 243.248 355.412 243.792C354.484 244.336 353.756 245.112 353.228 246.12C352.7 247.112 352.436 248.28 352.436 249.624C352.436 250.952 352.7 252.12 353.228 253.128C353.756 254.12 354.484 254.888 355.412 255.432C356.34 255.976 357.388 256.248 358.556 256.248C359.772 256.248 360.812 255.984 361.676 255.456C362.556 254.912 363.228 254.136 363.692 253.128H366.308C365.684 254.728 364.692 255.968 363.332 256.848C361.972 257.712 360.38 258.144 358.556 258.144C357.004 258.144 355.588 257.784 354.308 257.064C353.044 256.328 352.044 255.312 351.308 254.016C350.572 252.72 350.204 251.256 350.204 249.624ZM375.295 258.216C374.063 258.216 372.943 257.936 371.935 257.376C370.943 256.816 370.159 256.024 369.583 255C369.023 253.96 368.743 252.76 368.743 251.4C368.743 250.056 369.031 248.872 369.607 247.848C370.199 246.808 370.999 246.016 372.007 245.472C373.015 244.912 374.143 244.632 375.391 244.632C376.639 244.632 377.767 244.912 378.775 245.472C379.783 246.016 380.575 246.8 381.151 247.824C381.743 248.848 382.039 250.04 382.039 251.4C382.039 252.76 381.735 253.96 381.127 255C380.535 256.024 379.727 256.816 378.703 257.376C377.679 257.936 376.543 258.216 375.295 258.216ZM375.295 256.296C376.079 256.296 376.815 256.112 377.503 255.744C378.191 255.376 378.743 254.824 379.159 254.088C379.591 253.352 379.807 252.456 379.807 251.4C379.807 250.344 379.599 249.448 379.183 248.712C378.767 247.976 378.223 247.432 377.551 247.08C376.879 246.712 376.151 246.528 375.367 246.528C374.567 246.528 373.831 246.712 373.159 247.08C372.503 247.432 371.975 247.976 371.575 248.712C371.175 249.448 370.975 250.344 370.975 251.4C370.975 252.472 371.167 253.376 371.551 254.112C371.951 254.848 372.479 255.4 373.135 255.768C373.791 256.12 374.511 256.296 375.295 256.296ZM391.319 244.608C392.919 244.608 394.215 245.096 395.207 246.072C396.199 247.032 396.695 248.424 396.695 250.248V258H394.535V250.56C394.535 249.248 394.207 248.248 393.551 247.56C392.895 246.856 391.999 246.504 390.863 246.504C389.711 246.504 388.791 246.864 388.103 247.584C387.431 248.304 387.095 249.352 387.095 250.728V258H384.911V244.848H387.095V246.72C387.527 246.048 388.111 245.528 388.847 245.16C389.599 244.792 390.423 244.608 391.319 244.608ZM404.918 258.216C403.91 258.216 403.006 258.048 402.206 257.712C401.406 257.36 400.774 256.88 400.31 256.272C399.846 255.648 399.59 254.936 399.542 254.136H401.798C401.862 254.792 402.166 255.328 402.71 255.744C403.27 256.16 403.998 256.368 404.894 256.368C405.726 256.368 406.382 256.184 406.862 255.816C407.342 255.448 407.582 254.984 407.582 254.424C407.582 253.848 407.326 253.424 406.814 253.152C406.302 252.864 405.51 252.584 404.438 252.312C403.462 252.056 402.662 251.8 402.038 251.544C401.43 251.272 400.902 250.88 400.454 250.368C400.022 249.84 399.806 249.152 399.806 248.304C399.806 247.632 400.006 247.016 400.406 246.456C400.806 245.896 401.374 245.456 402.11 245.136C402.846 244.8 403.686 244.632 404.63 244.632C406.086 244.632 407.262 245 408.158 245.736C409.054 246.472 409.534 247.48 409.598 248.76H407.414C407.366 248.072 407.086 247.52 406.574 247.104C406.078 246.688 405.406 246.48 404.558 246.48C403.774 246.48 403.15 246.648 402.686 246.984C402.222 247.32 401.99 247.76 401.99 248.304C401.99 248.736 402.126 249.096 402.398 249.384C402.686 249.656 403.038 249.88 403.454 250.056C403.886 250.216 404.478 250.4 405.23 250.608C406.174 250.864 406.942 251.12 407.534 251.376C408.126 251.616 408.63 251.984 409.046 252.48C409.478 252.976 409.702 253.624 409.718 254.424C409.718 255.144 409.518 255.792 409.118 256.368C408.718 256.944 408.15 257.4 407.414 257.736C406.694 258.056 405.862 258.216 404.918 258.216ZM424.465 244.848V258H422.281V256.056C421.865 256.728 421.281 257.256 420.529 257.64C419.793 258.008 418.977 258.192 418.081 258.192C417.057 258.192 416.137 257.984 415.321 257.568C414.505 257.136 413.857 256.496 413.377 255.648C412.913 254.8 412.681 253.768 412.681 252.552V244.848H414.841V252.264C414.841 253.56 415.169 254.56 415.825 255.264C416.481 255.952 417.377 256.296 418.513 256.296C419.681 256.296 420.601 255.936 421.273 255.216C421.945 254.496 422.281 253.448 422.281 252.072V244.848H424.465ZM430.337 240.24V258H428.153V240.24H430.337ZM436.723 246.648V254.4C436.723 255.04 436.859 255.496 437.131 255.768C437.403 256.024 437.875 256.152 438.547 256.152H440.155V258H438.187C436.971 258 436.059 257.72 435.451 257.16C434.843 256.6 434.539 255.68 434.539 254.4V246.648H432.835V244.848H434.539V241.536H436.723V244.848H440.155V246.648H436.723ZM441.985 251.376C441.985 250.032 442.257 248.856 442.801 247.848C443.345 246.824 444.089 246.032 445.033 245.472C445.993 244.912 447.057 244.632 448.225 244.632C449.377 244.632 450.377 244.88 451.225 245.376C452.073 245.872 452.705 246.496 453.121 247.248V244.848H455.329V258H453.121V255.552C452.689 256.32 452.041 256.96 451.177 257.472C450.329 257.968 449.337 258.216 448.201 258.216C447.033 258.216 445.977 257.928 445.033 257.352C444.089 256.776 443.345 255.968 442.801 254.928C442.257 253.888 441.985 252.704 441.985 251.376ZM453.121 251.4C453.121 250.408 452.921 249.544 452.521 248.808C452.121 248.072 451.577 247.512 450.889 247.128C450.217 246.728 449.473 246.528 448.657 246.528C447.841 246.528 447.097 246.72 446.425 247.104C445.753 247.488 445.217 248.048 444.817 248.784C444.417 249.52 444.217 250.384 444.217 251.376C444.217 252.384 444.417 253.264 444.817 254.016C445.217 254.752 445.753 255.32 446.425 255.72C447.097 256.104 447.841 256.296 448.657 256.296C449.473 256.296 450.217 256.104 450.889 255.72C451.577 255.32 452.121 254.752 452.521 254.016C452.921 253.264 453.121 252.392 453.121 251.4ZM465.428 244.608C467.028 244.608 468.324 245.096 469.316 246.072C470.308 247.032 470.804 248.424 470.804 250.248V258H468.644V250.56C468.644 249.248 468.316 248.248 467.66 247.56C467.004 246.856 466.108 246.504 464.972 246.504C463.82 246.504 462.9 246.864 462.212 247.584C461.54 248.304 461.204 249.352 461.204 250.728V258H459.02V244.848H461.204V246.72C461.636 246.048 462.22 245.528 462.956 245.16C463.708 244.792 464.532 244.608 465.428 244.608ZM477.035 246.648V254.4C477.035 255.04 477.171 255.496 477.443 255.768C477.715 256.024 478.187 256.152 478.859 256.152H480.467V258H478.499C477.283 258 476.371 257.72 475.763 257.16C475.155 256.6 474.851 255.68 474.851 254.4V246.648H473.147V244.848H474.851V241.536H477.035V244.848H480.467V246.648H477.035ZM494.864 246.648H492.104V258H489.92V246.648H488.216V244.848H489.92V243.912C489.92 242.44 490.296 241.368 491.048 240.696C491.816 240.008 493.04 239.664 494.72 239.664V241.488C493.76 241.488 493.08 241.68 492.68 242.064C492.296 242.432 492.104 243.048 492.104 243.912V244.848H494.864V246.648ZM499.595 246.984C499.979 246.232 500.523 245.648 501.227 245.232C501.947 244.816 502.819 244.608 503.843 244.608V246.864H503.267C500.819 246.864 499.595 248.192 499.595 250.848V258H497.411V244.848H499.595V246.984ZM512.1 258.216C510.868 258.216 509.748 257.936 508.74 257.376C507.748 256.816 506.964 256.024 506.388 255C505.828 253.96 505.548 252.76 505.548 251.4C505.548 250.056 505.836 248.872 506.412 247.848C507.004 246.808 507.804 246.016 508.812 245.472C509.82 244.912 510.948 244.632 512.196 244.632C513.444 244.632 514.572 244.912 515.58 245.472C516.588 246.016 517.38 246.8 517.956 247.824C518.548 248.848 518.844 250.04 518.844 251.4C518.844 252.76 518.54 253.96 517.932 255C517.34 256.024 516.532 256.816 515.508 257.376C514.484 257.936 513.348 258.216 512.1 258.216ZM512.1 256.296C512.884 256.296 513.62 256.112 514.308 255.744C514.996 255.376 515.548 254.824 515.964 254.088C516.396 253.352 516.612 252.456 516.612 251.4C516.612 250.344 516.404 249.448 515.988 248.712C515.572 247.976 515.028 247.432 514.356 247.08C513.684 246.712 512.956 246.528 512.172 246.528C511.372 246.528 510.636 246.712 509.964 247.08C509.308 247.432 508.78 247.976 508.38 248.712C507.98 249.448 507.78 250.344 507.78 251.4C507.78 252.472 507.972 253.376 508.356 254.112C508.756 254.848 509.284 255.4 509.94 255.768C510.596 256.12 511.316 256.296 512.1 256.296ZM537.531 244.608C538.555 244.608 539.467 244.824 540.267 245.256C541.067 245.672 541.699 246.304 542.163 247.152C542.627 248 542.859 249.032 542.859 250.248V258H540.699V250.56C540.699 249.248 540.371 248.248 539.715 247.56C539.075 246.856 538.203 246.504 537.099 246.504C535.963 246.504 535.059 246.872 534.387 247.608C533.715 248.328 533.379 249.376 533.379 250.752V258H531.219V250.56C531.219 249.248 530.891 248.248 530.235 247.56C529.595 246.856 528.723 246.504 527.619 246.504C526.483 246.504 525.579 246.872 524.907 247.608C524.235 248.328 523.899 249.376 523.899 250.752V258H521.715V244.848H523.899V246.744C524.331 246.056 524.907 245.528 525.627 245.16C526.363 244.792 527.171 244.608 528.051 244.608C529.155 244.608 530.131 244.856 530.979 245.352C531.827 245.848 532.459 246.576 532.875 247.536C533.243 246.608 533.851 245.888 534.699 245.376C535.547 244.864 536.491 244.608 537.531 244.608ZM555.024 241.272V258H552.84V241.272H555.024ZM565.154 244.608C566.754 244.608 568.05 245.096 569.042 246.072C570.034 247.032 570.53 248.424 570.53 250.248V258H568.37V250.56C568.37 249.248 568.042 248.248 567.386 247.56C566.73 246.856 565.834 246.504 564.698 246.504C563.546 246.504 562.626 246.864 561.938 247.584C561.266 248.304 560.93 249.352 560.93 250.728V258H558.746V244.848H560.93V246.72C561.362 246.048 561.946 245.528 562.682 245.16C563.434 244.792 564.258 244.608 565.154 244.608ZM573.282 251.376C573.282 250.032 573.554 248.856 574.098 247.848C574.642 246.824 575.386 246.032 576.33 245.472C577.29 244.912 578.362 244.632 579.546 244.632C580.57 244.632 581.522 244.872 582.402 245.352C583.282 245.816 583.954 246.432 584.418 247.2V240.24H586.626V258H584.418V255.528C583.986 256.312 583.346 256.96 582.498 257.472C581.65 257.968 580.658 258.216 579.522 258.216C578.354 258.216 577.29 257.928 576.33 257.352C575.386 256.776 574.642 255.968 574.098 254.928C573.554 253.888 573.282 252.704 573.282 251.376ZM584.418 251.4C584.418 250.408 584.218 249.544 583.818 248.808C583.418 248.072 582.874 247.512 582.186 247.128C581.514 246.728 580.77 246.528 579.954 246.528C579.138 246.528 578.394 246.72 577.722 247.104C577.05 247.488 576.514 248.048 576.114 248.784C575.714 249.52 575.514 250.384 575.514 251.376C575.514 252.384 575.714 253.264 576.114 254.016C576.514 254.752 577.05 255.32 577.722 255.72C578.394 256.104 579.138 256.296 579.954 256.296C580.77 256.296 581.514 256.104 582.186 255.72C582.874 255.32 583.418 254.752 583.818 254.016C584.218 253.264 584.418 252.392 584.418 251.4ZM591.445 242.712C591.029 242.712 590.677 242.568 590.389 242.28C590.101 241.992 589.957 241.64 589.957 241.224C589.957 240.808 590.101 240.456 590.389 240.168C590.677 239.88 591.029 239.736 591.445 239.736C591.845 239.736 592.181 239.88 592.453 240.168C592.741 240.456 592.885 240.808 592.885 241.224C592.885 241.64 592.741 241.992 592.453 242.28C592.181 242.568 591.845 242.712 591.445 242.712ZM592.501 244.848V258H590.317V244.848H592.501ZM595.407 251.376C595.407 250.032 595.679 248.856 596.223 247.848C596.767 246.824 597.511 246.032 598.455 245.472C599.415 244.912 600.479 244.632 601.647 244.632C602.799 244.632 603.799 244.88 604.647 245.376C605.495 245.872 606.127 246.496 606.543 247.248V244.848H608.751V258H606.543V255.552C606.111 256.32 605.463 256.96 604.599 257.472C603.751 257.968 602.759 258.216 601.623 258.216C600.455 258.216 599.399 257.928 598.455 257.352C597.511 256.776 596.767 255.968 596.223 254.928C595.679 253.888 595.407 252.704 595.407 251.376ZM606.543 251.4C606.543 250.408 606.343 249.544 605.943 248.808C605.543 248.072 604.999 247.512 604.311 247.128C603.639 246.728 602.895 246.528 602.079 246.528C601.263 246.528 600.519 246.72 599.847 247.104C599.175 247.488 598.639 248.048 598.239 248.784C597.839 249.52 597.639 250.384 597.639 251.376C597.639 252.384 597.839 253.264 598.239 254.016C598.639 254.752 599.175 255.32 599.847 255.72C600.519 256.104 601.263 256.296 602.079 256.296C602.895 256.296 603.639 256.104 604.311 255.72C604.999 255.32 605.543 254.752 605.943 254.016C606.343 253.264 606.543 252.392 606.543 251.4Z" fill="#C0C0C0"/>
<path d="M96.8956 318.583H95.6777L95.246 318.167C96.2095 317.048 96.9136 315.729 97.3081 314.306C97.7025 312.883 97.7775 311.39 97.5277 309.935C96.8031 305.649 93.2264 302.226 88.9098 301.702C87.3922 301.51 85.8508 301.668 84.4035 302.163C82.9563 302.659 81.6415 303.478 80.5599 304.56C79.4782 305.642 78.6583 306.957 78.163 308.404C77.6676 309.851 77.5099 311.392 77.7019 312.91C78.226 317.227 81.6485 320.803 85.9344 321.528C87.3899 321.778 88.8827 321.703 90.3059 321.308C91.7291 320.914 93.0476 320.21 94.1669 319.246L94.5831 319.678V320.896L101.135 327.448C101.767 328.08 102.8 328.08 103.432 327.448C104.064 326.816 104.064 325.783 103.432 325.151L96.8956 318.583ZM87.6456 318.583C83.8069 318.583 80.7081 315.485 80.7081 311.646C80.7081 307.807 83.8069 304.708 87.6456 304.708C91.4844 304.708 94.5831 307.807 94.5831 311.646C94.5831 315.485 91.4844 318.583 87.6456 318.583Z" fill="#55575A"/>
<path d="M127.032 314.624C127.032 312.992 127.4 311.528 128.136 310.232C128.872 308.92 129.872 307.896 131.136 307.16C132.416 306.424 133.832 306.056 135.384 306.056C137.208 306.056 138.8 306.496 140.16 307.376C141.52 308.256 142.512 309.504 143.136 311.12H140.52C140.056 310.112 139.384 309.336 138.504 308.792C137.64 308.248 136.6 307.976 135.384 307.976C134.216 307.976 133.168 308.248 132.24 308.792C131.312 309.336 130.584 310.112 130.056 311.12C129.528 312.112 129.264 313.28 129.264 314.624C129.264 315.952 129.528 317.12 130.056 318.128C130.584 319.12 131.312 319.888 132.24 320.432C133.168 320.976 134.216 321.248 135.384 321.248C136.6 321.248 137.64 320.984 138.504 320.456C139.384 319.912 140.056 319.136 140.52 318.128H143.136C142.512 319.728 141.52 320.968 140.16 321.848C138.8 322.712 137.208 323.144 135.384 323.144C133.832 323.144 132.416 322.784 131.136 322.064C129.872 321.328 128.872 320.312 128.136 319.016C127.4 317.72 127.032 316.256 127.032 314.624ZM158.387 315.92C158.387 316.336 158.363 316.776 158.315 317.24H147.803C147.883 318.536 148.323 319.552 149.123 320.288C149.939 321.008 150.923 321.368 152.075 321.368C153.019 321.368 153.803 321.152 154.427 320.72C155.067 320.272 155.515 319.68 155.771 318.944H158.123C157.771 320.208 157.067 321.24 156.011 322.04C154.955 322.824 153.643 323.216 152.075 323.216C150.827 323.216 149.707 322.936 148.715 322.376C147.739 321.816 146.971 321.024 146.411 320C145.851 318.96 145.571 317.76 145.571 316.4C145.571 315.04 145.843 313.848 146.387 312.824C146.931 311.8 147.691 311.016 148.667 310.472C149.659 309.912 150.795 309.632 152.075 309.632C153.323 309.632 154.427 309.904 155.387 310.448C156.347 310.992 157.083 311.744 157.595 312.704C158.123 313.648 158.387 314.72 158.387 315.92ZM156.131 315.464C156.131 314.632 155.947 313.92 155.579 313.328C155.211 312.72 154.707 312.264 154.067 311.96C153.443 311.64 152.747 311.48 151.979 311.48C150.875 311.48 149.931 311.832 149.147 312.536C148.379 313.24 147.939 314.216 147.827 315.464H156.131ZM163.454 311.984C163.838 311.232 164.382 310.648 165.086 310.232C165.806 309.816 166.678 309.608 167.702 309.608V311.864H167.126C164.678 311.864 163.454 313.192 163.454 315.848V323H161.27V309.848H163.454V311.984ZM172.887 311.648V319.4C172.887 320.04 173.023 320.496 173.295 320.768C173.567 321.024 174.039 321.152 174.711 321.152H176.319V323H174.351C173.135 323 172.223 322.72 171.615 322.16C171.007 321.6 170.703 320.68 170.703 319.4V311.648H168.999V309.848H170.703V306.536H172.887V309.848H176.319V311.648H172.887ZM180.093 307.712C179.677 307.712 179.325 307.568 179.037 307.28C178.749 306.992 178.605 306.64 178.605 306.224C178.605 305.808 178.749 305.456 179.037 305.168C179.325 304.88 179.677 304.736 180.093 304.736C180.493 304.736 180.829 304.88 181.101 305.168C181.389 305.456 181.533 305.808 181.533 306.224C181.533 306.64 181.389 306.992 181.101 307.28C180.829 307.568 180.493 307.712 180.093 307.712ZM181.149 309.848V323H178.965V309.848H181.149ZM190.223 311.648H187.463V323H185.279V311.648H183.575V309.848H185.279V308.912C185.279 307.44 185.655 306.368 186.407 305.696C187.175 305.008 188.399 304.664 190.079 304.664V306.488C189.119 306.488 188.439 306.68 188.039 307.064C187.655 307.432 187.463 308.048 187.463 308.912V309.848H190.223V311.648ZM193.898 307.712C193.482 307.712 193.13 307.568 192.842 307.28C192.554 306.992 192.41 306.64 192.41 306.224C192.41 305.808 192.554 305.456 192.842 305.168C193.13 304.88 193.482 304.736 193.898 304.736C194.298 304.736 194.634 304.88 194.906 305.168C195.194 305.456 195.338 305.808 195.338 306.224C195.338 306.64 195.194 306.992 194.906 307.28C194.634 307.568 194.298 307.712 193.898 307.712ZM194.954 309.848V323H192.77V309.848H194.954ZM210.676 315.92C210.676 316.336 210.652 316.776 210.604 317.24H200.092C200.172 318.536 200.612 319.552 201.412 320.288C202.228 321.008 203.212 321.368 204.364 321.368C205.308 321.368 206.092 321.152 206.716 320.72C207.356 320.272 207.804 319.68 208.06 318.944H210.412C210.06 320.208 209.356 321.24 208.3 322.04C207.244 322.824 205.932 323.216 204.364 323.216C203.116 323.216 201.996 322.936 201.004 322.376C200.028 321.816 199.26 321.024 198.7 320C198.14 318.96 197.86 317.76 197.86 316.4C197.86 315.04 198.132 313.848 198.676 312.824C199.22 311.8 199.98 311.016 200.956 310.472C201.948 309.912 203.084 309.632 204.364 309.632C205.612 309.632 206.716 309.904 207.676 310.448C208.636 310.992 209.372 311.744 209.884 312.704C210.412 313.648 210.676 314.72 210.676 315.92ZM208.42 315.464C208.42 314.632 208.236 313.92 207.868 313.328C207.5 312.72 206.996 312.264 206.356 311.96C205.732 311.64 205.036 311.48 204.268 311.48C203.164 311.48 202.22 311.832 201.436 312.536C200.668 313.24 200.228 314.216 200.116 315.464H208.42ZM212.743 316.376C212.743 315.032 213.015 313.856 213.559 312.848C214.103 311.824 214.847 311.032 215.791 310.472C216.751 309.912 217.823 309.632 219.007 309.632C220.031 309.632 220.983 309.872 221.863 310.352C222.743 310.816 223.415 311.432 223.879 312.2V305.24H226.087V323H223.879V320.528C223.447 321.312 222.807 321.96 221.959 322.472C221.111 322.968 220.119 323.216 218.983 323.216C217.815 323.216 216.751 322.928 215.791 322.352C214.847 321.776 214.103 320.968 213.559 319.928C213.015 318.888 212.743 317.704 212.743 316.376ZM223.879 316.4C223.879 315.408 223.679 314.544 223.279 313.808C222.879 313.072 222.335 312.512 221.647 312.128C220.975 311.728 220.231 311.528 219.415 311.528C218.599 311.528 217.855 311.72 217.183 312.104C216.511 312.488 215.975 313.048 215.575 313.784C215.175 314.52 214.975 315.384 214.975 316.376C214.975 317.384 215.175 318.264 215.575 319.016C215.975 319.752 216.511 320.32 217.183 320.72C217.855 321.104 218.599 321.296 219.415 321.296C220.231 321.296 220.975 321.104 221.647 320.72C222.335 320.32 222.879 319.752 223.279 319.016C223.679 318.264 223.879 317.392 223.879 316.4ZM241.48 323.168C240.376 323.168 239.384 322.976 238.504 322.592C237.64 322.192 236.96 321.648 236.464 320.96C235.968 320.256 235.712 319.448 235.696 318.536H238.024C238.104 319.32 238.424 319.984 238.984 320.528C239.56 321.056 240.392 321.32 241.48 321.32C242.52 321.32 243.336 321.064 243.928 320.552C244.536 320.024 244.84 319.352 244.84 318.536C244.84 317.896 244.664 317.376 244.312 316.976C243.96 316.576 243.52 316.272 242.992 316.064C242.464 315.856 241.752 315.632 240.856 315.392C239.752 315.104 238.864 314.816 238.192 314.528C237.536 314.24 236.968 313.792 236.488 313.184C236.024 312.56 235.792 311.728 235.792 310.688C235.792 309.776 236.024 308.968 236.488 308.264C236.952 307.56 237.6 307.016 238.432 306.632C239.28 306.248 240.248 306.056 241.336 306.056C242.904 306.056 244.184 306.448 245.176 307.232C246.184 308.016 246.752 309.056 246.88 310.352H244.48C244.4 309.712 244.064 309.152 243.472 308.672C242.88 308.176 242.096 307.928 241.12 307.928C240.208 307.928 239.464 308.168 238.888 308.648C238.312 309.112 238.024 309.768 238.024 310.616C238.024 311.224 238.192 311.72 238.528 312.104C238.88 312.488 239.304 312.784 239.8 312.992C240.312 313.184 241.024 313.408 241.936 313.664C243.04 313.968 243.928 314.272 244.6 314.576C245.272 314.864 245.848 315.32 246.328 315.944C246.808 316.552 247.048 317.384 247.048 318.44C247.048 319.256 246.832 320.024 246.4 320.744C245.968 321.464 245.328 322.048 244.48 322.496C243.632 322.944 242.632 323.168 241.48 323.168ZM252.446 308.048V313.64H258.542V315.44H252.446V321.2H259.262V323H250.262V306.248H259.262V308.048H252.446ZM270.151 323.168C268.599 323.168 267.183 322.808 265.903 322.088C264.623 321.352 263.607 320.336 262.855 319.04C262.119 317.728 261.751 316.256 261.751 314.624C261.751 312.992 262.119 311.528 262.855 310.232C263.607 308.92 264.623 307.904 265.903 307.184C267.183 306.448 268.599 306.08 270.151 306.08C271.719 306.08 273.143 306.448 274.423 307.184C275.703 307.904 276.711 308.912 277.447 310.208C278.183 311.504 278.551 312.976 278.551 314.624C278.551 316.272 278.183 317.744 277.447 319.04C276.711 320.336 275.703 321.352 274.423 322.088C273.143 322.808 271.719 323.168 270.151 323.168ZM270.151 321.272C271.319 321.272 272.367 321 273.295 320.456C274.239 319.912 274.975 319.136 275.503 318.128C276.047 317.12 276.319 315.952 276.319 314.624C276.319 313.28 276.047 312.112 275.503 311.12C274.975 310.112 274.247 309.336 273.319 308.792C272.391 308.248 271.335 307.976 270.151 307.976C268.967 307.976 267.911 308.248 266.983 308.792C266.055 309.336 265.319 310.112 264.775 311.12C264.247 312.112 263.983 313.28 263.983 314.624C263.983 315.952 264.247 317.12 264.775 318.128C265.319 319.136 266.055 319.912 266.983 320.456C267.927 321 268.983 321.272 270.151 321.272ZM290.016 308.048V313.64H296.112V315.44H290.016V321.2H296.832V323H287.832V306.248H296.832V308.048H290.016ZM307.001 323L303.881 318.104L300.881 323H298.601L302.849 316.472L298.601 309.848H301.073L304.193 314.72L307.169 309.848H309.449L305.225 316.352L309.473 323H307.001ZM313.805 312.272C314.237 311.52 314.877 310.896 315.725 310.4C316.589 309.888 317.589 309.632 318.725 309.632C319.893 309.632 320.949 309.912 321.893 310.472C322.853 311.032 323.605 311.824 324.149 312.848C324.693 313.856 324.965 315.032 324.965 316.376C324.965 317.704 324.693 318.888 324.149 319.928C323.605 320.968 322.853 321.776 321.893 322.352C320.949 322.928 319.893 323.216 318.725 323.216C317.605 323.216 316.613 322.968 315.749 322.472C314.901 321.96 314.253 321.328 313.805 320.576V329.24H311.621V309.848H313.805V312.272ZM322.733 316.376C322.733 315.384 322.533 314.52 322.133 313.784C321.733 313.048 321.189 312.488 320.501 312.104C319.829 311.72 319.085 311.528 318.269 311.528C317.469 311.528 316.725 311.728 316.037 312.128C315.365 312.512 314.821 313.08 314.405 313.832C314.005 314.568 313.805 315.424 313.805 316.4C313.805 317.392 314.005 318.264 314.405 319.016C314.821 319.752 315.365 320.32 316.037 320.72C316.725 321.104 317.469 321.296 318.269 321.296C319.085 321.296 319.829 321.104 320.501 320.72C321.189 320.32 321.733 319.752 322.133 319.016C322.533 318.264 322.733 317.384 322.733 316.376ZM339.84 315.92C339.84 316.336 339.816 316.776 339.768 317.24H329.256C329.336 318.536 329.776 319.552 330.576 320.288C331.392 321.008 332.376 321.368 333.528 321.368C334.472 321.368 335.256 321.152 335.88 320.72C336.52 320.272 336.968 319.68 337.224 318.944H339.576C339.224 320.208 338.52 321.24 337.464 322.04C336.408 322.824 335.096 323.216 333.528 323.216C332.28 323.216 331.16 322.936 330.168 322.376C329.192 321.816 328.424 321.024 327.864 320C327.304 318.96 327.024 317.76 327.024 316.4C327.024 315.04 327.296 313.848 327.84 312.824C328.384 311.8 329.144 311.016 330.12 310.472C331.112 309.912 332.248 309.632 333.528 309.632C334.776 309.632 335.88 309.904 336.84 310.448C337.8 310.992 338.536 311.744 339.048 312.704C339.576 313.648 339.84 314.72 339.84 315.92ZM337.584 315.464C337.584 314.632 337.4 313.92 337.032 313.328C336.664 312.72 336.16 312.264 335.52 311.96C334.896 311.64 334.2 311.48 333.432 311.48C332.328 311.48 331.384 311.832 330.6 312.536C329.832 313.24 329.392 314.216 329.28 315.464H337.584ZM344.907 311.984C345.291 311.232 345.835 310.648 346.539 310.232C347.259 309.816 348.131 309.608 349.155 309.608V311.864H348.579C346.131 311.864 344.907 313.192 344.907 315.848V323H342.723V309.848H344.907V311.984ZM354.34 311.648V319.4C354.34 320.04 354.476 320.496 354.748 320.768C355.02 321.024 355.492 321.152 356.164 321.152H357.772V323H355.804C354.588 323 353.676 322.72 353.068 322.16C352.46 321.6 352.156 320.68 352.156 319.4V311.648H350.452V309.848H352.156V306.536H354.34V309.848H357.772V311.648H354.34Z" fill="#C0C0C0"/>
<defs>
<filter id="filter0_b_47_364" x="-20" y="-20" width="738" height="100" filterUnits="userSpaceOnUse" color-interpolation-filters="sRGB">
<feFlood flood-opacity="0" result="BackgroundImageFix"/>
<feGaussianBlur in="BackgroundImageFix" stdDeviation="10"/>
<feComposite in2="SourceAlpha" operator="in" result="effect1_backgroundBlur_47_364"/>
<feBlend mode="normal" in="SourceGraphic" in2="effect1_backgroundBlur_47_364" result="shape"/>
</filter>
<clipPath id="clip0_47_364">
<rect width="32" height="32" fill="white" transform="translate(635 14)"/>
</clipPath>
</defs>
</svg>
