<svg xmlns="http://www.w3.org/2000/svg" xmlns:xlink="http://www.w3.org/1999/xlink" width="1640" zoomAndPan="magnify" viewBox="0 0 1230 693.000001" height="924" preserveAspectRatio="xMidYMid meet" version="1.0"><defs><clipPath id="a22215fc77"><path d="M 189 69.199219 L 1029 69.199219 L 1029 625 L 189 625 Z M 189 69.199219 " clip-rule="nonzero"/></clipPath><clipPath id="78b3716574"><path d="M 959 58 L 1225 58 L 1225 345 L 959 345 Z M 959 58 " clip-rule="nonzero"/></clipPath><clipPath id="5d1c48f67d"><path d="M 915.292969 156.332031 L 1087.46875 19.089844 L 1260.191406 235.773438 L 1088.015625 373.015625 Z M 915.292969 156.332031 " clip-rule="nonzero"/></clipPath><clipPath id="c62eee4c2c"><path d="M 915.292969 156.332031 L 1087.46875 19.089844 L 1260.191406 235.773438 L 1088.015625 373.015625 Z M 915.292969 156.332031 " clip-rule="nonzero"/></clipPath><clipPath id="4e2c6220b6"><path d="M 971 70 L 1213 70 L 1213 333 L 971 333 Z M 971 70 " clip-rule="nonzero"/></clipPath><clipPath id="52ec3c4936"><path d="M 915.292969 156.332031 L 1087.46875 19.089844 L 1260.191406 235.773438 L 1088.015625 373.015625 Z M 915.292969 156.332031 " clip-rule="nonzero"/></clipPath><clipPath id="071d3afba1"><path d="M 915.292969 156.332031 L 1087.46875 19.089844 L 1260.191406 235.773438 L 1088.015625 373.015625 Z M 915.292969 156.332031 " clip-rule="nonzero"/></clipPath><clipPath id="4e0a228d68"><path d="M 997 71 L 1081 71 L 1081 134 L 997 134 Z M 997 71 " clip-rule="nonzero"/></clipPath><clipPath id="f839a1ca33"><path d="M 915.292969 156.332031 L 1087.46875 19.089844 L 1260.191406 235.773438 L 1088.015625 373.015625 Z M 915.292969 156.332031 " clip-rule="nonzero"/></clipPath><clipPath id="b792779721"><path d="M 915.292969 156.332031 L 1087.46875 19.089844 L 1260.191406 235.773438 L 1088.015625 373.015625 Z M 915.292969 156.332031 " clip-rule="nonzero"/></clipPath><clipPath id="042150e418"><path d="M 1024 80 L 1036 80 L 1036 93 L 1024 93 Z M 1024 80 " clip-rule="nonzero"/></clipPath><clipPath id="ad8e5e3dc8"><path d="M 915.292969 156.332031 L 1087.46875 19.089844 L 1260.191406 235.773438 L 1088.015625 373.015625 Z M 915.292969 156.332031 " clip-rule="nonzero"/></clipPath><clipPath id="38d0eecca3"><path d="M 915.292969 156.332031 L 1087.46875 19.089844 L 1260.191406 235.773438 L 1088.015625 373.015625 Z M 915.292969 156.332031 " clip-rule="nonzero"/></clipPath><clipPath id="fb6e487dfd"><path d="M 1036 114 L 1120 114 L 1120 166 L 1036 166 Z M 1036 114 " clip-rule="nonzero"/></clipPath><clipPath id="b4d65e3b0c"><path d="M 915.292969 156.332031 L 1087.46875 19.089844 L 1260.191406 235.773438 L 1088.015625 373.015625 Z M 915.292969 156.332031 " clip-rule="nonzero"/></clipPath><clipPath id="1b31963bb0"><path d="M 915.292969 156.332031 L 1087.46875 19.089844 L 1260.191406 235.773438 L 1088.015625 373.015625 Z M 915.292969 156.332031 " clip-rule="nonzero"/></clipPath><clipPath id="7fbe189ffa"><path d="M 998 159 L 1028 159 L 1028 190 L 998 190 Z M 998 159 " clip-rule="nonzero"/></clipPath><clipPath id="4e9f398392"><path d="M 915.292969 156.332031 L 1087.46875 19.089844 L 1260.191406 235.773438 L 1088.015625 373.015625 Z M 915.292969 156.332031 " clip-rule="nonzero"/></clipPath><clipPath id="6355fc500a"><path d="M 915.292969 156.332031 L 1087.46875 19.089844 L 1260.191406 235.773438 L 1088.015625 373.015625 Z M 915.292969 156.332031 " clip-rule="nonzero"/></clipPath><clipPath id="8f90e74df9"><path d="M 1006 142 L 1027 142 L 1027 180 L 1006 180 Z M 1006 142 " clip-rule="nonzero"/></clipPath><clipPath id="c25ad6c2e0"><path d="M 915.292969 156.332031 L 1087.46875 19.089844 L 1260.191406 235.773438 L 1088.015625 373.015625 Z M 915.292969 156.332031 " clip-rule="nonzero"/></clipPath><clipPath id="52c73ddcfa"><path d="M 915.292969 156.332031 L 1087.46875 19.089844 L 1260.191406 235.773438 L 1088.015625 373.015625 Z M 915.292969 156.332031 " clip-rule="nonzero"/></clipPath><clipPath id="3f2a5f5f10"><path d="M 1056 151 L 1140 151 L 1140 203 L 1056 203 Z M 1056 151 " clip-rule="nonzero"/></clipPath><clipPath id="bb3de08139"><path d="M 915.292969 156.332031 L 1087.46875 19.089844 L 1260.191406 235.773438 L 1088.015625 373.015625 Z M 915.292969 156.332031 " clip-rule="nonzero"/></clipPath><clipPath id="21e1bdf9c3"><path d="M 915.292969 156.332031 L 1087.46875 19.089844 L 1260.191406 235.773438 L 1088.015625 373.015625 Z M 915.292969 156.332031 " clip-rule="nonzero"/></clipPath><clipPath id="6e011660d4"><path d="M 1018 196 L 1048 196 L 1048 227 L 1018 227 Z M 1018 196 " clip-rule="nonzero"/></clipPath><clipPath id="54b5f33b1a"><path d="M 915.292969 156.332031 L 1087.46875 19.089844 L 1260.191406 235.773438 L 1088.015625 373.015625 Z M 915.292969 156.332031 " clip-rule="nonzero"/></clipPath><clipPath id="341ca75db0"><path d="M 915.292969 156.332031 L 1087.46875 19.089844 L 1260.191406 235.773438 L 1088.015625 373.015625 Z M 915.292969 156.332031 " clip-rule="nonzero"/></clipPath><clipPath id="61eb4672e8"><path d="M 1027 179 L 1048 179 L 1048 217 L 1027 217 Z M 1027 179 " clip-rule="nonzero"/></clipPath><clipPath id="abcd0b605e"><path d="M 915.292969 156.332031 L 1087.46875 19.089844 L 1260.191406 235.773438 L 1088.015625 373.015625 Z M 915.292969 156.332031 " clip-rule="nonzero"/></clipPath><clipPath id="2c2d06672c"><path d="M 915.292969 156.332031 L 1087.46875 19.089844 L 1260.191406 235.773438 L 1088.015625 373.015625 Z M 915.292969 156.332031 " clip-rule="nonzero"/></clipPath><clipPath id="c1cff6775b"><path d="M 1076 188 L 1160 188 L 1160 240 L 1076 240 Z M 1076 188 " clip-rule="nonzero"/></clipPath><clipPath id="65661801cf"><path d="M 915.292969 156.332031 L 1087.46875 19.089844 L 1260.191406 235.773438 L 1088.015625 373.015625 Z M 915.292969 156.332031 " clip-rule="nonzero"/></clipPath><clipPath id="41149005fb"><path d="M 915.292969 156.332031 L 1087.46875 19.089844 L 1260.191406 235.773438 L 1088.015625 373.015625 Z M 915.292969 156.332031 " clip-rule="nonzero"/></clipPath><clipPath id="ce4fa7de18"><path d="M 1038 233 L 1069 233 L 1069 264 L 1038 264 Z M 1038 233 " clip-rule="nonzero"/></clipPath><clipPath id="290a8e7326"><path d="M 915.292969 156.332031 L 1087.46875 19.089844 L 1260.191406 235.773438 L 1088.015625 373.015625 Z M 915.292969 156.332031 " clip-rule="nonzero"/></clipPath><clipPath id="fe8ad27466"><path d="M 915.292969 156.332031 L 1087.46875 19.089844 L 1260.191406 235.773438 L 1088.015625 373.015625 Z M 915.292969 156.332031 " clip-rule="nonzero"/></clipPath><clipPath id="f424a652d1"><path d="M 1047 216 L 1068 216 L 1068 254 L 1047 254 Z M 1047 216 " clip-rule="nonzero"/></clipPath><clipPath id="c455fa85f7"><path d="M 915.292969 156.332031 L 1087.46875 19.089844 L 1260.191406 235.773438 L 1088.015625 373.015625 Z M 915.292969 156.332031 " clip-rule="nonzero"/></clipPath><clipPath id="22ab9587d7"><path d="M 915.292969 156.332031 L 1087.46875 19.089844 L 1260.191406 235.773438 L 1088.015625 373.015625 Z M 915.292969 156.332031 " clip-rule="nonzero"/></clipPath><clipPath id="d7a88e96ad"><path d="M 1096 225 L 1180 225 L 1180 277 L 1096 277 Z M 1096 225 " clip-rule="nonzero"/></clipPath><clipPath id="83f5f3a927"><path d="M 915.292969 156.332031 L 1087.46875 19.089844 L 1260.191406 235.773438 L 1088.015625 373.015625 Z M 915.292969 156.332031 " clip-rule="nonzero"/></clipPath><clipPath id="1018c886bc"><path d="M 915.292969 156.332031 L 1087.46875 19.089844 L 1260.191406 235.773438 L 1088.015625 373.015625 Z M 915.292969 156.332031 " clip-rule="nonzero"/></clipPath><clipPath id="45499f2e31"><path d="M 1058 270 L 1089 270 L 1089 300 L 1058 300 Z M 1058 270 " clip-rule="nonzero"/></clipPath><clipPath id="f9c8b91eb0"><path d="M 915.292969 156.332031 L 1087.46875 19.089844 L 1260.191406 235.773438 L 1088.015625 373.015625 Z M 915.292969 156.332031 " clip-rule="nonzero"/></clipPath><clipPath id="e551015929"><path d="M 915.292969 156.332031 L 1087.46875 19.089844 L 1260.191406 235.773438 L 1088.015625 373.015625 Z M 915.292969 156.332031 " clip-rule="nonzero"/></clipPath><clipPath id="551245ad5b"><path d="M 1067 253 L 1088 253 L 1088 291 L 1067 291 Z M 1067 253 " clip-rule="nonzero"/></clipPath><clipPath id="195652aa47"><path d="M 915.292969 156.332031 L 1087.46875 19.089844 L 1260.191406 235.773438 L 1088.015625 373.015625 Z M 915.292969 156.332031 " clip-rule="nonzero"/></clipPath><clipPath id="96758888fb"><path d="M 915.292969 156.332031 L 1087.46875 19.089844 L 1260.191406 235.773438 L 1088.015625 373.015625 Z M 915.292969 156.332031 " clip-rule="nonzero"/></clipPath></defs><g clip-path="url(#a22215fc77)"><path fill="#ffffff" d="M 312.082031 277.667969 C 343.007812 335.742188 369.742188 394.34375 404.816406 451.457031 C 439.316406 507.628906 459.769531 490.824219 521.910156 424.652344 C 645.027344 293.558594 749.867188 142.3125 933.984375 84.847656 C 970.414062 73.476562 994.898438 69.757812 1010.058594 69.554688 C 1035.457031 69.210938 1033.796875 74.179688 1012.933594 85.164062 C 954.695312 115.804688 926.234375 124.332031 871.902344 170.09375 C 726.71875 292.382812 575.851562 501.835938 503.597656 583.324219 C 462.03125 630.207031 410.167969 644.707031 366.488281 582.996094 C 309.628906 502.667969 244.035156 418.085938 199.097656 345.921875 C 176.714844 309.96875 198.558594 284.082031 223.238281 267.113281 C 252.460938 247.011719 290.167969 236.5 312.082031 277.667969 Z M 312.082031 277.667969 " fill-opacity="1" fill-rule="evenodd"/></g><g clip-path="url(#78b3716574)"><g clip-path="url(#5d1c48f67d)"><g clip-path="url(#c62eee4c2c)"><path fill="#3840f7" d="M 1218.585938 267.222656 L 1079.183594 343.46875 C 1073.300781 346.691406 1065.855469 344.515625 1062.632812 338.621094 L 960.738281 152.332031 C 957.519531 146.4375 959.707031 139 965.589844 135.777344 L 1104.988281 59.53125 C 1110.914062 56.285156 1118.300781 58.492188 1121.527344 64.378906 L 1223.417969 250.675781 C 1226.648438 256.570312 1224.519531 263.976562 1218.585938 267.222656 " fill-opacity="1" fill-rule="nonzero"/></g></g></g><g clip-path="url(#4e2c6220b6)"><g clip-path="url(#52ec3c4936)"><g clip-path="url(#071d3afba1)"><path fill="#ffffff" d="M 1073.339844 332.765625 L 971.441406 146.480469 L 1110.839844 70.234375 L 1212.734375 256.523438 L 1073.339844 332.765625 " fill-opacity="1" fill-rule="nonzero"/></g></g></g><g clip-path="url(#4e0a228d68)"><g clip-path="url(#f839a1ca33)"><g clip-path="url(#b792779721)"><path fill="#525fe0" d="M 1067.941406 76.527344 L 1063.765625 78.8125 L 1061.175781 74.082031 C 1060.324219 72.53125 1058.382812 71.984375 1056.84375 72.8125 L 1044.054688 79.808594 C 1039.742188 71.933594 1029.863281 69.046875 1021.988281 73.359375 C 1014.113281 77.660156 1011.214844 87.535156 1015.527344 95.410156 L 1003.746094 101.859375 C 1002.21875 102.691406 1001.679688 104.617188 1002.523438 106.164062 L 1005.113281 110.890625 L 999.875 113.75 C 997.882812 114.839844 997.171875 117.320312 998.234375 119.277344 L 1004.914062 131.476562 C 1005.976562 133.425781 1008.449219 134.164062 1010.449219 133.070312 L 1078.503906 95.847656 C 1080.503906 94.75 1081.183594 92.296875 1080.121094 90.339844 L 1073.441406 78.140625 C 1072.371094 76.183594 1069.929688 75.433594 1067.941406 76.527344 " fill-opacity="1" fill-rule="nonzero"/></g></g></g><g clip-path="url(#042150e418)"><g clip-path="url(#ad8e5e3dc8)"><g clip-path="url(#38d0eecca3)"><path fill="#ffffff" d="M 1024.757812 89.234375 C 1023.21875 86.410156 1024.265625 82.894531 1027.050781 81.367188 C 1029.851562 79.839844 1033.351562 80.855469 1034.902344 83.695312 C 1036.445312 86.515625 1035.414062 90.007812 1032.621094 91.539062 C 1029.832031 93.058594 1026.308594 92.0625 1024.757812 89.234375 " fill-opacity="1" fill-rule="nonzero"/></g></g></g><g clip-path="url(#fb6e487dfd)"><g clip-path="url(#b4d65e3b0c)"><g clip-path="url(#1b31963bb0)"><path fill="#000000" d="M 1119.261719 122.757812 L 1040.5625 165.800781 L 1036.023438 157.503906 L 1114.726562 114.460938 L 1119.261719 122.757812 " fill-opacity="1" fill-rule="nonzero"/></g></g></g><g clip-path="url(#7fbe189ffa)"><g clip-path="url(#4e9f398392)"><g clip-path="url(#6355fc500a)"><path fill="#000000" d="M 1009.757812 185.570312 L 1023.9375 177.808594 L 1016.183594 163.636719 L 1002.003906 171.386719 Z M 1027.667969 178.898438 L 1008.667969 189.289062 L 998.28125 170.300781 L 1017.273438 159.90625 L 1027.667969 178.898438 " fill-opacity="1" fill-rule="nonzero"/></g></g></g><g clip-path="url(#8f90e74df9)"><g clip-path="url(#c25ad6c2e0)"><g clip-path="url(#52c73ddcfa)"><path fill="#3840f7" d="M 1006.902344 176.125 L 1009.992188 171.453125 L 1015.566406 173.761719 L 1024.261719 143.777344 L 1026.945312 142.410156 L 1018.628906 179.546875 L 1006.902344 176.125 " fill-opacity="1" fill-rule="nonzero"/></g></g></g><g clip-path="url(#3f2a5f5f10)"><g clip-path="url(#bb3de08139)"><g clip-path="url(#21e1bdf9c3)"><path fill="#000000" d="M 1139.441406 159.648438 L 1060.746094 202.695312 L 1056.210938 194.398438 L 1134.90625 151.351562 L 1139.441406 159.648438 " fill-opacity="1" fill-rule="nonzero"/></g></g></g><g clip-path="url(#6e011660d4)"><g clip-path="url(#54b5f33b1a)"><g clip-path="url(#341ca75db0)"><path fill="#000000" d="M 1029.945312 222.464844 L 1044.117188 214.710938 L 1036.363281 200.539062 L 1022.183594 208.285156 Z M 1047.847656 215.800781 L 1028.855469 226.195312 L 1018.460938 207.203125 L 1037.457031 196.804688 L 1047.847656 215.800781 " fill-opacity="1" fill-rule="nonzero"/></g></g></g><g clip-path="url(#61eb4672e8)"><g clip-path="url(#abcd0b605e)"><g clip-path="url(#2c2d06672c)"><path fill="#3840f7" d="M 1027.082031 213.027344 L 1030.167969 208.347656 L 1035.746094 210.660156 L 1044.445312 180.675781 L 1047.121094 179.304688 L 1038.816406 216.441406 L 1027.082031 213.027344 " fill-opacity="1" fill-rule="nonzero"/></g></g></g><g clip-path="url(#c1cff6775b)"><g clip-path="url(#65661801cf)"><g clip-path="url(#41149005fb)"><path fill="#000000" d="M 1159.628906 196.554688 L 1080.925781 239.597656 L 1076.390625 231.300781 L 1155.085938 188.253906 L 1159.628906 196.554688 " fill-opacity="1" fill-rule="nonzero"/></g></g></g><g clip-path="url(#ce4fa7de18)"><g clip-path="url(#290a8e7326)"><g clip-path="url(#fe8ad27466)"><path fill="#000000" d="M 1050.125 259.367188 L 1064.300781 251.609375 L 1056.546875 237.433594 L 1042.371094 245.183594 Z M 1068.03125 252.699219 L 1049.035156 263.085938 L 1038.644531 244.101562 L 1057.636719 233.707031 L 1068.03125 252.699219 " fill-opacity="1" fill-rule="nonzero"/></g></g></g><g clip-path="url(#f424a652d1)"><g clip-path="url(#c455fa85f7)"><g clip-path="url(#22ab9587d7)"><path fill="#3840f7" d="M 1047.269531 249.921875 L 1050.351562 245.246094 L 1055.925781 247.550781 L 1064.625 217.578125 L 1067.308594 216.203125 L 1058.996094 253.34375 L 1047.269531 249.921875 " fill-opacity="1" fill-rule="nonzero"/></g></g></g><g clip-path="url(#d7a88e96ad)"><g clip-path="url(#83f5f3a927)"><g clip-path="url(#1018c886bc)"><path fill="#000000" d="M 1179.808594 233.445312 L 1101.113281 276.496094 L 1096.578125 268.199219 L 1175.265625 225.15625 L 1179.808594 233.445312 " fill-opacity="1" fill-rule="nonzero"/></g></g></g><g clip-path="url(#45499f2e31)"><g clip-path="url(#f9c8b91eb0)"><g clip-path="url(#e551015929)"><path fill="#000000" d="M 1070.304688 296.269531 L 1084.488281 288.503906 L 1076.730469 274.324219 L 1062.550781 282.085938 Z M 1088.210938 289.597656 L 1069.214844 299.988281 L 1058.820312 280.996094 L 1077.824219 270.601562 L 1088.210938 289.597656 " fill-opacity="1" fill-rule="nonzero"/></g></g></g><g clip-path="url(#551245ad5b)"><g clip-path="url(#195652aa47)"><g clip-path="url(#96758888fb)"><path fill="#3840f7" d="M 1067.445312 286.816406 L 1070.53125 282.148438 L 1076.105469 284.453125 L 1084.8125 254.472656 L 1087.488281 253.105469 L 1079.183594 290.238281 L 1067.445312 286.816406 " fill-opacity="1" fill-rule="nonzero"/></g></g></g></svg>